<svg width="223" height="62" viewBox="0 0 223 62" fill="none" xmlns="http://www.w3.org/2000/svg">
<path fill-rule="evenodd" clip-rule="evenodd" d="M43.0595 41.7961C43.0595 42.4852 42.4853 43.0594 41.7961 43.0594H31.8063C31.1172 43.0594 30.543 42.4852 30.543 41.7961L30.5433 31.8069C30.5433 31.1181 31.1172 30.5442 31.8063 30.5442H41.7965C42.4853 30.5442 43.0595 31.1181 43.0595 31.8072V41.7961Z" fill="white"/>
<path fill-rule="evenodd" clip-rule="evenodd" d="M28.132 11.9423C28.132 12.6311 27.5581 13.2053 26.8689 13.2053H16.8788C16.1909 13.2053 15.6158 12.6314 15.6158 11.9423V1.83686C15.6158 1.1477 16.1906 0.574158 16.8785 0.574158H26.8689C27.5581 0.574158 28.132 1.14802 28.132 1.83686V11.9423Z" fill="white"/>
<path fill-rule="evenodd" clip-rule="evenodd" d="M43.0595 11.9423C43.0595 12.6311 42.4853 13.2053 41.7961 13.2053H31.8063C31.1172 13.2053 30.543 12.6314 30.543 11.9423L30.5433 1.83686C30.5433 1.1477 31.1172 0.574158 31.8063 0.574158H41.7965C42.4853 0.574158 43.0595 1.14802 43.0595 1.83686V11.9423Z" fill="white"/>
<path fill-rule="evenodd" clip-rule="evenodd" d="M13.2044 26.8696C13.2044 27.5581 12.6302 28.132 11.941 28.132H1.95251C1.26336 28.132 0.689178 27.5581 0.689178 26.8696V16.7648C0.689178 16.0756 1.26336 15.5015 1.95219 15.5015H11.9414C12.6305 15.5015 13.2044 16.0756 13.2044 16.7648V26.8696Z" fill="white"/>
<path fill-rule="evenodd" clip-rule="evenodd" d="M28.132 26.8696C28.132 27.5581 27.5581 28.132 26.8689 28.132H16.8788C16.1909 28.132 15.6158 27.5581 15.6158 26.8696V16.7648C15.6158 16.0756 16.1906 15.5015 16.8785 15.5015H26.8689C27.5581 15.5015 28.132 16.0756 28.132 16.7648V26.8696Z" fill="white"/>
<path fill-rule="evenodd" clip-rule="evenodd" d="M13.2044 41.7961C13.2044 42.4852 12.6302 43.0594 11.941 43.0594H1.95251C1.26336 43.0594 0.689178 42.4852 0.689178 41.7961V31.8069C0.689178 31.1181 1.26336 30.5442 1.95219 30.5442H11.9414C12.6305 30.5442 13.2044 31.1181 13.2044 31.8072V41.7961Z" fill="white"/>
<path fill-rule="evenodd" clip-rule="evenodd" d="M28.132 41.7961C28.132 42.4852 27.5581 43.0594 26.8689 43.0594H16.8788C16.1909 43.0594 15.6158 42.4852 15.6158 41.7961V31.8069C15.6158 31.1181 16.1906 30.5442 16.8785 30.5442H26.8689C27.5581 30.5442 28.132 31.1181 28.132 31.8072V41.7961Z" fill="white"/>
<path fill-rule="evenodd" clip-rule="evenodd" d="M13.2044 56.724C13.2044 57.4128 12.6302 57.987 11.941 57.987L1.95251 57.9867C1.26336 57.9867 0.689178 57.4128 0.689178 56.724V46.7335C0.689178 46.0457 1.26336 45.4705 1.95219 45.4705H11.9414C12.6305 45.4705 13.2044 46.0457 13.2044 46.7339V56.724Z" fill="white"/>
<path fill-rule="evenodd" clip-rule="evenodd" d="M28.132 56.724C28.132 57.4128 27.5581 57.987 26.8689 57.987L16.8788 57.9867C16.1909 57.9867 15.6158 57.4128 15.6158 56.724V46.7335C15.6158 46.0457 16.1906 45.4705 16.8785 45.4705H26.8689C27.5581 45.4705 28.132 46.0457 28.132 46.7339V56.724Z" fill="white"/>
<path fill-rule="evenodd" clip-rule="evenodd" d="M13.7785 6.88959C13.7785 10.679 10.678 13.7795 6.88992 13.7795C3.10055 13.7795 0 10.679 0 6.88992C0 3.10022 3.10022 0 6.88992 0C10.793 0 13.7785 3.10022 13.7785 6.88959Z" fill="#E65F5C"/>
<path d="M51.7798 15.3816H54.4108V27.7744H51.7798V15.3816Z" fill="white"/>
<path d="M68.5882 27.7744H65.2445L59.8427 18.3989H59.7674C59.8746 20.0565 59.9299 21.2365 59.9299 21.9425V27.7744H57.5766V15.3816H60.8977L66.2876 24.6645H66.3483C66.2614 23.0534 66.2207 21.9134 66.2207 21.2482V15.3816H68.5882V27.7744ZM79.0434 24.3377C79.0434 25.4573 78.6374 26.3367 77.832 26.982C77.0263 27.6269 75.9021 27.9479 74.4647 27.9479C73.1404 27.9479 71.9671 27.6992 70.9499 27.2015V24.7601C71.7872 25.1331 72.4974 25.3966 73.0767 25.5497C73.6564 25.7031 74.1867 25.7784 74.6675 25.7784C75.2472 25.7784 75.6903 25.6685 75.9977 25.4486C76.3077 25.2287 76.4615 24.899 76.4615 24.4649C76.4615 24.2221 76.3946 24.0051 76.2583 23.8171C76.1224 23.626 75.9225 23.4438 75.6586 23.2704C75.3951 23.0938 74.8587 22.8131 74.0504 22.4314C73.2912 22.0726 72.7205 21.7313 72.3408 21.4044C71.9613 21.0776 71.6597 20.6956 71.4336 20.259C71.205 19.825 71.0916 19.3157 71.0916 18.7344C71.0916 17.638 71.4656 16.7758 72.2103 16.148C72.955 15.5205 73.9839 15.2079 75.2963 15.2079C75.9428 15.2079 76.5571 15.2831 77.1451 15.4365C77.7306 15.5899 78.342 15.8037 78.9823 16.0814L78.1333 18.124C77.4697 17.8521 76.922 17.6638 76.4905 17.557C76.0555 17.4497 75.6296 17.3948 75.2123 17.3948C74.714 17.3948 74.3314 17.5108 74.0649 17.742C73.7985 17.9735 73.6651 18.2771 73.6651 18.6504C73.6651 18.882 73.72 19.0845 73.8272 19.255C73.9345 19.4287 74.1053 19.5934 74.3401 19.7555C74.5752 19.9176 75.1316 20.2067 76.0094 20.6233C77.1713 21.1787 77.9651 21.7342 78.3972 22.2896C78.826 22.848 79.0434 23.5278 79.0434 24.3377Z" fill="white"/>
<path d="M86.1545 27.7744H83.5232V17.5685H80.153V15.3816H89.5247V17.5685H86.1545V27.7744ZM91.4368 27.7744V15.3816H94.0678V27.7744H91.4368ZM101.979 27.7744H99.3476V17.5685H95.9774V15.3816H105.349V17.5685H101.979V27.7744Z" fill="white"/>
<path d="M117.445 15.3816V23.4034C117.445 24.3173 117.24 25.1218 116.831 25.8103C116.419 26.5017 115.828 27.0281 115.052 27.3956C114.275 27.7628 113.36 27.9478 112.299 27.9478C110.705 27.9478 109.465 27.54 108.581 26.7213C107.698 25.9056 107.257 24.7892 107.257 23.3685V15.3816H109.879V22.9694C109.879 23.9269 110.074 24.627 110.456 25.0724C110.841 25.5209 111.479 25.7438 112.369 25.7438C113.229 25.7438 113.852 25.518 114.241 25.0695C114.629 24.6212 114.823 23.9153 114.823 22.9549V15.3816H117.445Z" fill="white"/>
<path d="M128.598 15.3816V17.5685H125.228V27.7744H122.597V17.5685H119.227V15.3816H128.598Z" fill="white"/>
<path d="M141.871 21.5636C141.871 23.6175 141.364 25.1941 140.344 26.2963C139.324 27.3982 137.863 27.9478 135.962 27.9478C134.061 27.9478 132.601 27.3982 131.581 26.2963C130.561 25.1941 130.054 23.6117 130.054 21.5491C130.054 19.4865 130.564 17.9099 131.587 16.8223C132.607 15.7343 134.073 15.1904 135.98 15.1904C137.886 15.1904 139.347 15.7372 140.355 16.8336C141.367 17.9299 141.871 19.5068 141.871 21.5636ZM132.813 21.5636C132.813 22.9491 133.076 23.9905 133.601 24.6936C134.128 25.3937 134.916 25.7438 135.962 25.7438C138.063 25.7438 139.112 24.3493 139.112 21.5636C139.112 18.7718 138.069 17.3777 135.98 17.3777C134.931 17.3777 134.143 17.7303 133.61 18.4334C133.079 19.1364 132.813 20.1808 132.813 21.5636ZM151.549 27.7744H148.959V15.3816H156.076V17.5337H151.549V20.7276H155.763V22.8796H151.549V27.7744Z" fill="white"/>
<path d="M165.684 27.7744H158.535V15.3816H165.684V17.5337H161.167V20.259H165.368V22.411H161.167V25.6049H165.684V27.7744ZM178.565 21.4593C178.565 23.4987 177.985 25.0611 176.823 26.1458C175.658 27.2306 173.981 27.7744 171.784 27.7744H168.272V15.3816H172.167C174.192 15.3816 175.765 15.9167 176.887 16.984C178.006 18.0517 178.565 19.5443 178.565 21.4593ZM175.832 21.5259C175.832 18.8645 174.656 17.5337 172.303 17.5337H170.903V25.6049H172.033C174.566 25.6049 175.832 24.245 175.832 21.5259ZM188.29 27.7744H181.141V15.3816H188.29V17.5337H183.772V20.259H187.974V22.411H183.772V25.6049H188.29V27.7744ZM193.508 20.8835H194.358C195.189 20.8835 195.804 20.7447 196.198 20.4672C196.594 20.1924 196.791 19.7555 196.791 19.1626C196.791 18.5751 196.589 18.1557 196.186 17.907C195.78 17.658 195.154 17.5337 194.305 17.5337H193.508V20.8835ZM193.508 23.0185V27.7744H190.877V15.3816H194.494C196.18 15.3816 197.426 15.6881 198.235 16.3013C199.046 16.9146 199.449 17.8463 199.449 19.0931C199.449 19.822 199.249 20.4698 198.846 21.0398C198.446 21.6069 197.878 22.0522 197.142 22.3736C199.008 25.1592 200.225 26.9616 200.79 27.7744H197.87L194.908 23.0185H193.508Z" fill="white"/>
<path d="M210.104 27.7744L209.202 24.8237H204.676L203.778 27.7744H200.941L205.322 15.3293H208.539L212.937 27.7744H210.104ZM208.573 22.6193C207.742 19.9463 207.272 18.4334 207.168 18.0833C207.064 17.7332 206.988 17.4555 206.945 17.253C206.756 17.9764 206.22 19.7642 205.34 22.6193H208.573Z" fill="white"/>
<path d="M222.141 27.7744H214.473V15.3816H217.104V25.6049H222.141V27.7744Z" fill="white"/>
<path d="M59.4202 43.1328H58.1353L52.8397 35.0144H52.7858C52.8555 35.9674 52.8917 36.8391 52.8917 37.6341V43.1328H51.8515V33.4585H53.1229L58.4065 41.5453H58.4589C58.4495 41.4258 58.4314 41.0441 58.3998 40.3959C58.3684 39.7501 58.3571 39.2892 58.3662 39.0092V33.4585H59.4202V43.1328ZM68.1858 39.5017C68.1858 40.685 67.8871 41.6086 67.2922 42.2725C66.6951 42.9365 65.8713 43.2685 64.8198 43.2685C64.1704 43.2685 63.5936 43.117 63.0892 42.8121C62.587 42.5073 62.1978 42.0691 61.9243 41.5C61.6482 40.931 61.5129 40.2648 61.5129 39.5017C61.5129 38.3184 61.809 37.3971 62.4016 36.7377C62.992 36.0782 63.8154 35.7485 64.865 35.7485C65.8826 35.7485 66.6883 36.085 67.2877 36.7603C67.8871 37.4355 68.1858 38.3501 68.1858 39.5017ZM62.6529 39.5017C62.6529 40.4276 62.8382 41.1342 63.209 41.6199C63.58 42.1052 64.1252 42.3471 64.8469 42.3471C65.5661 42.3471 66.1138 42.1052 66.4868 41.6221C66.8601 41.1387 67.0458 40.4321 67.0458 39.5017C67.0458 38.5804 66.8601 37.8802 66.4868 37.4016C66.1138 36.9227 65.5616 36.6834 64.8333 36.6834C64.1116 36.6834 63.5687 36.9182 63.2022 37.3903C62.8356 37.8621 62.6529 38.5668 62.6529 39.5017ZM73.4265 35.7485C73.7478 35.7485 74.0371 35.7756 74.2932 35.8276L74.1414 36.8504C73.8405 36.7851 73.576 36.7512 73.3454 36.7512C72.7596 36.7512 72.2571 36.9883 71.8389 37.4646C71.4226 37.9413 71.2143 38.5352 71.2143 39.2443V43.1328H70.1128V35.8841H71.0219L71.1465 37.2231H71.2008C71.4701 36.7512 71.7937 36.3876 72.1734 36.1325C72.5532 35.8773 72.9698 35.7485 73.4265 35.7485ZM78.0006 42.3607C78.195 42.3607 78.3826 42.3471 78.5638 42.3177C78.7446 42.2884 78.8874 42.259 78.9933 42.2273V43.0696C78.8738 43.1261 78.6994 43.1735 78.4666 43.2119C78.2357 43.2504 78.0254 43.2685 77.8397 43.2685C76.4353 43.2685 75.7339 42.5299 75.7339 41.0508V36.7377H74.6934V36.209L75.7339 35.7507L76.1976 34.2039H76.8331V35.8841H78.9416V36.7377H76.8331V41.0034C76.8331 41.4413 76.9371 41.7755 77.1454 42.0106C77.3537 42.2431 77.6386 42.3607 78.0006 42.3607ZM83.5128 43.2685C82.4384 43.2685 81.5923 42.941 80.9729 42.2883C80.3506 41.6357 80.0409 40.7279 80.0409 39.5673C80.0409 38.3973 80.328 37.4691 80.9048 36.7806C81.4815 36.0918 82.255 35.7485 83.228 35.7485C84.1371 35.7485 84.8588 36.0466 85.3881 36.645C85.9174 37.2434 86.1845 38.0317 86.1845 39.0092V39.7048H81.1809C81.2035 40.5561 81.4183 41.202 81.8255 41.6447C82.2346 42.0849 82.8095 42.3064 83.5535 42.3064C84.3341 42.3064 85.1075 42.1437 85.8722 41.8162V42.7963C85.4831 42.9659 85.1143 43.0854 84.7684 43.16C84.4222 43.2323 84.004 43.2685 83.5128 43.2685ZM83.2141 36.6699C82.6306 36.6699 82.1671 36.8594 81.821 37.2389C81.4725 37.616 81.2691 38.1399 81.208 38.8106H85.0035C85.0035 38.1195 84.8498 37.5889 84.5398 37.2208C84.2301 36.8526 83.7886 36.6699 83.2141 36.6699ZM96.5309 42.1618H96.4721C95.9631 42.9003 95.2029 43.2685 94.1921 43.2685C93.242 43.2685 92.5022 42.9433 91.9729 42.2951C91.4462 41.647 91.1814 40.7234 91.1814 39.5288C91.1814 38.332 91.4462 37.4039 91.9774 36.7422C92.5067 36.0805 93.2466 35.7485 94.1921 35.7485C95.1761 35.7485 95.9315 36.1054 96.4585 36.821H96.5444L96.4992 36.2972L96.4721 35.7892V32.8353H97.5717V43.1328H96.6781L96.5309 42.1618ZM94.33 42.3471C95.0812 42.3471 95.6263 42.1437 95.9654 41.7352C96.3025 41.3263 96.4721 40.6691 96.4721 39.7591V39.5288C96.4721 38.5012 96.3003 37.7672 95.9586 37.3293C95.615 36.8888 95.0676 36.6699 94.3164 36.6699C93.6715 36.6699 93.1787 36.9204 92.8348 37.422C92.4931 37.9209 92.3213 38.6278 92.3213 39.5424C92.3213 40.4683 92.4909 41.1658 92.8326 41.638C93.172 42.1098 93.6716 42.3471 94.33 42.3471ZM102.971 43.2685C101.896 43.2685 101.05 42.941 100.431 42.2883C99.809 41.6357 99.499 40.7279 99.499 39.5673C99.499 38.3973 99.7861 37.4691 100.363 36.7806C100.94 36.0918 101.713 35.7485 102.686 35.7485C103.595 35.7485 104.317 36.0466 104.846 36.645C105.376 37.2434 105.643 38.0317 105.643 39.0092V39.7048H100.639C100.662 40.5561 100.876 41.202 101.284 41.6447C101.693 42.0849 102.268 42.3064 103.012 42.3064C103.792 42.3064 104.566 42.1437 105.331 41.8162V42.7963C104.941 42.9659 104.573 43.0854 104.227 43.16C103.88 43.2323 103.462 43.2685 102.971 43.2685ZM102.673 36.6699C102.089 36.6699 101.625 36.8594 101.279 37.2389C100.931 37.616 100.727 38.1399 100.666 38.8106H104.462C104.462 38.1195 104.308 37.5889 103.998 37.2208C103.688 36.8526 103.247 36.6699 102.673 36.6699ZM115.498 43.1328L112.209 34.5562H112.157C112.218 35.236 112.25 36.0443 112.25 36.9792V43.1328H111.209V33.4585H112.906L115.975 41.4393H116.028L119.124 33.4585H120.808V43.1328H119.681V36.9001C119.681 36.1845 119.712 35.4075 119.773 34.5698H119.721L116.406 43.1328H115.498ZM124.397 43.1328H123.298V35.8841H124.397V43.1328ZM123.205 33.9148C123.205 33.6642 123.266 33.4811 123.39 33.3639C123.515 33.2464 123.669 33.1876 123.854 33.1876C124.031 33.1876 124.184 33.2464 124.311 33.3662C124.44 33.4856 124.503 33.6688 124.503 33.9148C124.503 34.1632 124.44 34.3485 124.311 34.468C124.184 34.5901 124.031 34.6511 123.854 34.6511C123.669 34.6511 123.515 34.5901 123.39 34.468C123.266 34.3485 123.205 34.1632 123.205 33.9148ZM131.704 43.1328V38.4425C131.704 37.8508 131.57 37.4107 131.299 37.1194C131.029 36.8278 130.606 36.6834 130.032 36.6834C129.272 36.6834 128.715 36.8888 128.362 37.2976C128.007 37.7087 127.831 38.3859 127.831 39.3299V43.1328H126.732V35.8841H127.625L127.804 36.873H127.858C128.084 36.5161 128.399 36.2384 128.806 36.0421C129.213 35.8457 129.665 35.7485 130.165 35.7485C131.041 35.7485 131.699 35.9584 132.14 36.3808C132.584 36.801 132.803 37.4759 132.803 38.4018V43.1328H131.704ZM139.528 43.1328L139.308 42.1007H139.254C138.892 42.5548 138.533 42.8642 138.173 43.0266C137.811 43.1871 137.363 43.2685 136.825 43.2685C136.103 43.2685 135.54 43.0831 135.131 42.7127C134.723 42.3403 134.518 41.8139 134.518 41.1277C134.518 39.6619 135.691 38.8943 138.035 38.8242L139.268 38.7835V38.3343C139.268 37.7672 139.146 37.3474 138.902 37.0764C138.655 36.8055 138.263 36.6699 137.725 36.6699C137.119 36.6699 136.436 36.8549 135.671 37.2253L135.334 36.3853C135.691 36.1912 136.083 36.0375 136.508 35.9268C136.935 35.8163 137.363 35.7621 137.791 35.7621C138.657 35.7621 139.297 35.9539 139.716 36.3379C140.134 36.7218 140.342 37.3361 140.342 38.1828V43.1328H139.528ZM137.042 42.3607C137.728 42.3607 138.266 42.1731 138.655 41.7981C139.046 41.4235 139.243 40.8994 139.243 40.2241V39.5695L138.141 39.6167C137.268 39.6461 136.637 39.7817 136.25 40.0233C135.864 40.2626 135.671 40.6375 135.671 41.1432C135.671 41.5407 135.791 41.8433 136.033 42.049C136.273 42.2567 136.61 42.3607 137.042 42.3607ZM147.296 41.1568C147.296 41.832 147.042 42.3539 146.54 42.7195C146.036 43.0854 145.33 43.2685 144.419 43.2685C143.457 43.2685 142.706 43.117 142.166 42.8121V41.7914C142.517 41.9677 142.889 42.1075 143.29 42.2092C143.69 42.3109 144.075 42.3607 144.446 42.3607C145.02 42.3607 145.461 42.268 145.771 42.0849C146.081 41.9021 146.235 41.6244 146.235 41.2495C146.235 40.9672 146.113 40.7256 145.866 40.5244C145.622 40.3236 145.145 40.0866 144.432 39.8133C143.756 39.5605 143.276 39.3412 142.991 39.1539C142.706 38.9666 142.494 38.7541 142.356 38.5148C142.215 38.2778 142.148 37.9932 142.148 37.6613C142.148 37.0696 142.387 36.6043 142.869 36.261C143.351 35.92 144.012 35.7485 144.851 35.7485C145.631 35.7485 146.396 35.9064 147.142 36.2248L146.751 37.1194C146.022 36.8191 145.362 36.6699 144.772 36.6699C144.249 36.6699 143.855 36.7512 143.591 36.9137C143.326 37.0787 143.192 37.3022 143.192 37.5889C143.192 37.783 143.242 37.948 143.342 38.0856C143.442 38.2213 143.602 38.3524 143.824 38.4764C144.043 38.5984 144.468 38.779 145.095 39.0115C145.957 39.3254 146.538 39.6415 146.841 39.9577C147.145 40.2761 147.296 40.6759 147.296 41.1568ZM157.039 38.0653H160.332V42.7715C159.819 42.9342 159.299 43.0582 158.767 43.1419C158.238 43.2255 157.622 43.2685 156.925 43.2685C155.458 43.2685 154.315 42.8325 153.498 41.9609C152.682 41.0893 152.273 39.8699 152.273 38.2981C152.273 37.2931 152.476 36.4125 152.879 35.6558C153.284 34.8995 153.865 34.3214 154.625 33.9216C155.385 33.5218 156.276 33.3232 157.296 33.3232C158.331 33.3232 159.294 33.5128 160.185 33.89L159.749 34.8814C158.873 34.511 158.032 34.326 157.224 34.326C156.043 34.326 155.123 34.6757 154.46 35.3781C153.797 36.0782 153.467 37.0516 153.467 38.2958C153.467 39.6008 153.786 40.5923 154.424 41.2675C155.062 41.9428 156 42.2793 157.238 42.2793C157.907 42.2793 158.563 42.2025 159.206 42.0468V39.068H157.039V38.0653ZM165.56 43.2685C164.485 43.2685 163.639 42.941 163.02 42.2883C162.398 41.6357 162.088 40.7279 162.088 39.5673C162.088 38.3973 162.375 37.4691 162.952 36.7806C163.529 36.0918 164.302 35.7485 165.275 35.7485C166.184 35.7485 166.906 36.0466 167.435 36.645C167.964 37.2434 168.232 38.0317 168.232 39.0092V39.7048H163.228C163.25 40.5561 163.465 41.202 163.873 41.6447C164.282 42.0849 164.856 42.3064 165.601 42.3064C166.381 42.3064 167.155 42.1437 167.919 41.8162V42.7963C167.53 42.9659 167.161 43.0854 166.815 43.16C166.469 43.2323 166.051 43.2685 165.56 43.2685ZM165.261 36.6699C164.678 36.6699 164.214 36.8594 163.868 37.2389C163.52 37.616 163.316 38.1399 163.255 38.8106H167.05C167.05 38.1195 166.897 37.5889 166.587 37.2208C166.277 36.8526 165.836 36.6699 165.261 36.6699ZM173.418 35.7485C173.739 35.7485 174.029 35.7756 174.284 35.8276L174.133 36.8504C173.832 36.7851 173.567 36.7512 173.337 36.7512C172.751 36.7512 172.249 36.9883 171.83 37.4646C171.414 37.9413 171.206 38.5352 171.206 39.2443V43.1328H170.104V35.8841H171.013L171.138 37.2231H171.192C171.462 36.7512 171.785 36.3876 172.165 36.1325C172.545 35.8773 172.961 35.7485 173.418 35.7485ZM179.84 43.1328L179.62 42.1007H179.566C179.204 42.5548 178.845 42.8642 178.485 43.0266C178.123 43.1871 177.675 43.2685 177.137 43.2685C176.415 43.2685 175.852 43.0831 175.442 42.7127C175.035 42.3403 174.83 41.8139 174.83 41.1277C174.83 39.6619 176.003 38.8943 178.347 38.8242L179.58 38.7835V38.3343C179.58 37.7672 179.458 37.3474 179.213 37.0764C178.967 36.8055 178.576 36.6699 178.037 36.6699C177.431 36.6699 176.748 36.8549 175.983 37.2253L175.646 36.3853C176.003 36.1912 176.395 36.0375 176.82 35.9268C177.248 35.8163 177.675 35.7621 178.103 35.7621C178.969 35.7621 179.609 35.9539 180.028 36.3379C180.446 36.7218 180.654 37.3361 180.654 38.1828V43.1328H179.84ZM177.354 42.3607C178.04 42.3607 178.578 42.1731 178.967 41.7981C179.358 41.4235 179.555 40.8994 179.555 40.2241V39.5695L178.453 39.6167C177.58 39.6461 176.949 39.7817 176.562 40.0233C176.176 40.2626 175.983 40.6375 175.983 41.1432C175.983 41.5407 176.103 41.8433 176.345 42.049C176.585 42.2567 176.922 42.3607 177.354 42.3607ZM184.023 43.1328H182.923V35.8841H184.023V43.1328ZM182.831 33.9148C182.831 33.6642 182.892 33.4811 183.016 33.3639C183.141 33.2464 183.294 33.1876 183.48 33.1876C183.656 33.1876 183.81 33.2464 183.937 33.3662C184.066 33.4856 184.129 33.6688 184.129 33.9148C184.129 34.1632 184.066 34.3485 183.937 34.468C183.81 34.5901 183.656 34.6511 183.48 34.6511C183.294 34.6511 183.141 34.5901 183.016 34.468C182.892 34.3485 182.831 34.1632 182.831 33.9148ZM191.042 41.1568C191.042 41.832 190.789 42.3539 190.286 42.7195C189.782 43.0854 189.076 43.2685 188.164 43.2685C187.203 43.2685 186.452 43.117 185.912 42.8121V41.7914C186.262 41.9677 186.635 42.1075 187.036 42.2092C187.436 42.3109 187.82 42.3607 188.191 42.3607C188.766 42.3607 189.207 42.268 189.517 42.0849C189.827 41.9021 189.981 41.6244 189.981 41.2495C189.981 40.9672 189.859 40.7256 189.612 40.5244C189.368 40.3236 188.891 40.0866 188.178 39.8133C187.502 39.5605 187.022 39.3412 186.737 39.1539C186.452 38.9666 186.24 38.7541 186.101 38.5148C185.961 38.2778 185.893 37.9932 185.893 37.6613C185.893 37.0696 186.133 36.6043 186.615 36.261C187.097 35.92 187.757 35.7485 188.597 35.7485C189.377 35.7485 190.142 35.9064 190.888 36.2248L190.497 37.1194C189.768 36.8191 189.108 36.6699 188.517 36.6699C187.995 36.6699 187.601 36.7512 187.337 36.9137C187.072 37.0787 186.938 37.3022 186.938 37.5889C186.938 37.783 186.988 37.948 187.088 38.0856C187.187 38.2213 187.348 38.3524 187.57 38.4764C187.789 38.5984 188.214 38.779 188.841 39.0115C189.703 39.3254 190.284 39.6415 190.587 39.9577C190.891 40.2761 191.042 40.6759 191.042 41.1568Z" fill="white"/>
<path d="M55.8243 49.5147C54.7951 49.5147 53.9806 49.858 53.3829 50.542C52.7874 51.2282 52.4896 52.1661 52.4896 53.3574C52.4896 54.5836 52.7764 55.5301 53.3522 56.1967C53.926 56.8655 54.747 57.2 55.8133 57.2C56.4656 57.2 57.2123 57.0818 58.051 56.848V57.8033C57.4006 58.0481 56.5994 58.1705 55.6447 58.1705C54.2632 58.1705 53.1969 57.7529 52.448 56.9159C51.6968 56.0788 51.3203 54.8897 51.3203 53.3487C51.3203 52.3824 51.5021 51.5367 51.8634 50.811C52.2248 50.085 52.746 49.5257 53.4287 49.1343C54.1098 48.741 54.9133 48.5443 55.8375 48.5443C56.8228 48.5443 57.6809 48.7235 58.4165 49.0797L57.9547 50.0153C57.2452 49.6807 56.5357 49.5147 55.8243 49.5147ZM64.2585 58.0394L64.046 57.0405H63.9937C63.6433 57.4797 63.2949 57.7794 62.9467 57.9367C62.5963 58.0917 62.163 58.1705 61.6417 58.1705C60.9435 58.1705 60.3984 57.9913 60.0022 57.6328C59.6079 57.2721 59.4086 56.7628 59.4086 56.0985C59.4086 54.6798 60.5447 53.9367 62.813 53.8689L64.0066 53.8295V53.3945C64.0066 52.8459 63.8884 52.4393 63.652 52.177C63.4134 51.9148 63.0346 51.7837 62.5133 51.7837C61.9266 51.7837 61.2652 51.9629 60.525 52.3214L60.1992 51.5082C60.5447 51.3203 60.9235 51.1714 61.3356 51.0645C61.7493 50.9573 62.163 50.905 62.5766 50.905C63.4156 50.905 64.035 51.0907 64.44 51.4624C64.8453 51.8338 65.0465 52.4283 65.0465 53.2479V58.0394H64.2585ZM61.852 57.2918C62.5156 57.2918 63.0368 57.1103 63.4134 56.7476C63.7922 56.3846 63.9827 55.8776 63.9827 55.224V54.59L62.9161 54.6359C62.0709 54.6643 61.4599 54.7958 61.0856 55.0296C60.7113 55.2611 60.525 55.6241 60.525 56.1137C60.525 56.4983 60.6413 56.7912 60.8754 56.9901C61.1076 57.1913 61.4338 57.2918 61.852 57.2918ZM76.1999 58.0394V53.4733C76.1999 52.9159 76.0817 52.4961 75.8407 52.2164C75.6024 51.9364 75.2301 51.7966 74.7263 51.7966C74.0626 51.7966 73.5747 51.9868 73.2572 52.3672C72.942 52.7473 72.7822 53.3312 72.7822 54.1202V58.0394H71.7178V53.4733C71.7178 52.9159 71.5976 52.4961 71.3587 52.2164C71.1203 51.9364 70.7457 51.7966 70.2355 51.7966C69.5699 51.7966 69.0816 51.9956 68.7709 52.3957C68.4622 52.7936 68.3066 53.4491 68.3066 54.3585V58.0394H67.2428V51.0228H68.1073L68.2804 51.9804H68.3327C68.532 51.6394 68.8168 51.3726 69.1824 51.1801C69.5483 50.988 69.9574 50.8917 70.4108 50.8917C71.5079 50.8917 72.228 51.2896 72.5655 52.0831H72.6155C72.8258 51.7159 73.1303 51.4252 73.5266 51.2108C73.9251 50.999 74.3781 50.8917 74.8861 50.8917C75.6809 50.8917 76.2764 51.0949 76.6726 51.5037C77.067 51.9103 77.2662 52.5639 77.2662 53.4601V58.0394H76.1999ZM82.7336 58.1705C82.276 58.1705 81.8574 58.0852 81.4786 57.917C81.1021 57.7487 80.7827 57.4884 80.5263 57.1387H80.4497C80.5001 57.5475 80.5263 57.9367 80.5263 58.3038V61.1871H79.4625V51.0228H80.327L80.4759 51.9804H80.5263C80.8001 51.5954 81.1195 51.318 81.4832 51.1475C81.8465 50.977 82.2624 50.8917 82.7336 50.8917C83.6662 50.8917 84.3867 51.2108 84.8944 51.847C85.4004 52.4829 85.6542 53.3748 85.6542 54.5245C85.6542 55.6787 85.3959 56.5748 84.8814 57.2133C84.3647 57.8514 83.651 58.1705 82.7336 58.1705ZM82.5802 51.7966C81.862 51.7966 81.341 51.9955 81.0213 52.3911C80.6994 52.789 80.535 53.4207 80.5263 54.2884V54.5245C80.5263 55.5104 80.6906 56.2164 81.0213 56.6404C81.3498 57.0667 81.8794 57.2789 82.6063 57.2789C83.2128 57.2789 83.6904 57.0337 84.034 56.5422C84.378 56.0504 84.5511 55.3748 84.5511 54.5116C84.5511 53.6371 84.378 52.966 84.034 52.4984C83.6904 52.0304 83.2041 51.7966 82.5802 51.7966ZM88.5139 51.0228V55.576C88.5139 56.1463 88.643 56.5748 88.9056 56.8568C89.1665 57.1387 89.5757 57.2789 90.1321 57.2789C90.8678 57.2789 91.4039 57.0777 91.7455 56.6775C92.0849 56.2755 92.2558 55.6196 92.2558 54.7105V51.0228H93.3202V58.0394H92.4418L92.2887 57.1016H92.2296C92.0129 57.4471 91.7084 57.7116 91.3209 57.895C90.9356 58.0788 90.4932 58.1705 89.9962 58.1705C89.1404 58.1705 88.5006 57.9674 88.0737 57.5627C87.649 57.1565 87.4369 56.507 87.4369 55.6154V51.0228H88.5139ZM100.112 56.1269C100.112 56.7802 99.8665 57.2853 99.3801 57.6392C98.8922 57.9935 98.2088 58.1705 97.3269 58.1705C96.3962 58.1705 95.6692 58.0242 95.1458 57.729V56.7412C95.4852 56.9113 95.8465 57.047 96.2341 57.1455C96.6216 57.2436 96.9939 57.2918 97.3531 57.2918C97.9092 57.2918 98.3361 57.2023 98.6358 57.025C98.9358 56.848 99.085 56.5794 99.085 56.2164C99.085 55.9432 98.9665 55.7093 98.7278 55.5146C98.4914 55.3202 98.0293 55.0906 97.3398 54.8261C96.6849 54.5813 96.2208 54.3695 95.945 54.188C95.6692 54.0065 95.4635 53.8011 95.3298 53.5692C95.1939 53.34 95.1283 53.0645 95.1283 52.7432C95.1283 52.1706 95.3602 51.7201 95.8268 51.3878C96.2932 51.0578 96.9326 50.8917 97.7448 50.8917C98.5001 50.8917 99.2403 51.0448 99.9627 51.3529L99.5839 52.2184C98.8789 51.9277 98.2395 51.7837 97.6679 51.7837C97.1625 51.7837 96.7814 51.8622 96.525 52.0198C96.2689 52.1793 96.1398 52.3957 96.1398 52.6731C96.1398 52.861 96.1882 53.0209 96.2845 53.1539C96.381 53.2854 96.536 53.412 96.7508 53.5321C96.9633 53.6503 97.3747 53.825 97.9812 54.0501C98.8153 54.354 99.3782 54.6601 99.6718 54.966C99.965 55.2744 100.112 55.6613 100.112 56.1269ZM111.313 58.0394L110.146 55.0622H106.384L105.231 58.0394H104.127L107.836 48.636H108.754L112.443 58.0394H111.313ZM109.807 54.0785L108.714 51.1782C108.574 50.811 108.427 50.3605 108.278 49.8273C108.184 50.2359 108.051 50.6864 107.873 51.1782L106.77 54.0785H109.807ZM114.635 58.0394H113.571V48.0721H114.635V58.0394ZM125.852 58.0394V53.4733C125.852 52.9159 125.734 52.4961 125.492 52.2164C125.254 51.9364 124.882 51.7966 124.378 51.7966C123.715 51.7966 123.227 51.9868 122.909 52.3672C122.594 52.7473 122.434 53.3312 122.434 54.1202V58.0394H121.37V53.4733C121.37 52.9159 121.249 52.4961 121.011 52.2164C120.772 51.9364 120.398 51.7966 119.887 51.7966C119.222 51.7966 118.734 51.9956 118.423 52.3957C118.114 52.7936 117.959 53.4491 117.959 54.3585V58.0394H116.894V51.0228H117.759L117.932 51.9804H117.985C118.184 51.6394 118.469 51.3726 118.834 51.1801C119.2 50.988 119.609 50.8917 120.063 50.8917C121.16 50.8917 121.88 51.2896 122.217 52.0831H122.268C122.478 51.7159 122.782 51.4252 123.178 51.2108C123.577 50.999 124.03 50.8917 124.538 50.8917C125.333 50.8917 125.928 51.0949 126.325 51.5037C126.719 51.9103 126.918 52.5639 126.918 53.4601V58.0394H125.852ZM132.083 58.1705C131.043 58.1705 130.224 57.8537 129.624 57.222C129.022 56.59 128.722 55.7116 128.722 54.5881C128.722 53.4556 129.001 52.5575 129.559 51.8906C130.117 51.224 130.866 50.8917 131.807 50.8917C132.688 50.8917 133.386 51.1801 133.899 51.7595C134.411 52.3388 134.669 53.1016 134.669 54.0482V54.7212H129.826C129.848 55.5453 130.056 56.1705 130.45 56.599C130.846 57.025 131.402 57.2394 132.122 57.2394C132.878 57.2394 133.627 57.0819 134.367 56.7651V57.7135C133.99 57.8776 133.633 57.9935 133.298 58.0655C132.964 58.1356 132.558 58.1705 132.083 58.1705ZM131.794 51.7837C131.229 51.7837 130.78 51.9671 130.445 52.3343C130.108 52.6996 129.911 53.2066 129.852 53.8557H133.526C133.526 53.1869 133.377 52.6731 133.077 52.3169C132.777 51.9607 132.35 51.7837 131.794 51.7837ZM141.297 58.0394V53.4995C141.297 52.9266 141.168 52.5006 140.905 52.2184C140.644 51.9365 140.235 51.7966 139.679 51.7966C138.943 51.7966 138.405 51.9955 138.063 52.3911C137.719 52.789 137.548 53.4449 137.548 54.3585V58.0394H136.484V51.0228H137.349L137.522 51.9804H137.575C137.794 51.6348 138.098 51.3661 138.492 51.1759C138.886 50.9857 139.324 50.8917 139.808 50.8917C140.655 50.8917 141.292 51.0949 141.719 51.5037C142.149 51.9103 142.361 52.5639 142.361 53.4601V58.0394H141.297ZM148.87 58.0394L148.658 57.0405H148.606C148.255 57.4797 147.907 57.7794 147.559 57.9367C147.208 58.0917 146.775 58.1705 146.254 58.1705C145.555 58.1705 145.01 57.9913 144.614 57.6328C144.22 57.2721 144.02 56.7628 144.02 56.0985C144.02 54.6798 145.157 53.9367 147.425 53.8689L148.618 53.8295V53.3945C148.618 52.8459 148.5 52.4393 148.264 52.177C148.025 51.9148 147.646 51.7837 147.125 51.7837C146.538 51.7837 145.877 51.9629 145.137 52.3214L144.811 51.5082C145.157 51.3203 145.536 51.1714 145.947 51.0645C146.361 50.9573 146.775 50.905 147.188 50.905C148.027 50.905 148.647 51.0907 149.052 51.4624C149.457 51.8338 149.658 52.4283 149.658 53.2479V58.0394H148.87ZM146.464 57.2918C147.127 57.2918 147.649 57.1103 148.025 56.7476C148.404 56.3846 148.595 55.8776 148.595 55.224V54.59L147.528 54.6359C146.683 54.6643 146.072 54.7958 145.698 55.0296C145.323 55.2611 145.137 55.6241 145.137 56.1137C145.137 56.4983 145.253 56.7912 145.487 56.9901C145.72 57.1913 146.046 57.2918 146.464 57.2918ZM155.06 50.8917C155.371 50.8917 155.651 50.9179 155.898 50.9683L155.752 51.9584C155.461 51.8951 155.204 51.8622 154.981 51.8622C154.414 51.8622 153.928 52.0918 153.523 52.5529C153.12 53.0141 152.918 53.5889 152.918 54.2755V58.0394H151.852V51.0228H152.732L152.853 52.3191H152.905C153.166 51.8622 153.479 51.5102 153.847 51.2634C154.215 51.0164 154.617 50.8917 155.06 50.8917ZM161.276 58.0394L161.064 57.0405H161.011C160.661 57.4797 160.312 57.7794 159.964 57.9367C159.614 58.0917 159.181 58.1705 158.66 58.1705C157.961 58.1705 157.416 57.9913 157.02 57.6328C156.625 57.2721 156.426 56.7628 156.426 56.0985C156.426 54.6798 157.563 53.9367 159.831 53.8689L161.024 53.8295V53.3945C161.024 52.8459 160.906 52.4393 160.67 52.177C160.431 51.9148 160.052 51.7837 159.531 51.7837C158.944 51.7837 158.283 51.9629 157.543 52.3214L157.217 51.5082C157.563 51.3203 157.941 51.1714 158.353 51.0645C158.767 50.9573 159.18 50.905 159.594 50.905C160.433 50.905 161.053 51.0907 161.458 51.4624C161.863 51.8338 162.064 52.4283 162.064 53.2479V58.0394H161.276ZM158.87 57.2918C159.533 57.2918 160.054 57.1103 160.431 56.7476C160.81 56.3846 161 55.8776 161 55.224V54.59L159.934 54.6359C159.089 54.6643 158.478 54.7958 158.104 55.0296C157.729 55.2611 157.543 55.6241 157.543 56.1137C157.543 56.4983 157.659 56.7912 157.893 56.9901C158.125 57.1913 158.451 57.2918 158.87 57.2918Z" fill="white"/>
</svg>
