<svg width="407" height="407" viewBox="0 0 407 407" fill="none" xmlns="http://www.w3.org/2000/svg">
<path d="M59.0149 348.034H367.114C372.169 341.986 401.587 303.712 388.408 245.543C374.009 182.051 365.535 181.164 302.01 141.351C238.486 101.538 216.524 67.6597 143.647 94.7659C70.7691 121.872 68.262 172.698 71.6319 213.349C75.0019 254.001 28.4899 285.348 25.9096 310.761C23.8664 331.16 41.5139 344.452 59.0149 348.034Z" fill="#92E3A9"/>
<path opacity="0.7" d="M59.0149 348.034H367.114C372.169 341.986 401.587 303.712 388.408 245.543C374.009 182.051 365.535 181.164 302.01 141.351C238.486 101.538 216.524 67.6597 143.647 94.7659C70.7691 121.872 68.262 172.698 71.6319 213.349C75.0019 254.001 28.4899 285.348 25.9096 310.761C23.8664 331.16 41.5139 344.452 59.0149 348.034Z" fill="white"/>
<g opacity="0.5">
<path opacity="0.5" d="M81.2372 130.525C103.715 130.525 121.937 112.303 121.937 89.8249C121.937 67.3469 103.715 49.1249 81.2372 49.1249C58.7592 49.1249 40.5372 67.3469 40.5372 89.8249C40.5372 112.303 58.7592 130.525 81.2372 130.525Z" stroke="black" stroke-miterlimit="10"/>
<path opacity="0.5" d="M81.2372 126.455C101.467 126.455 117.867 110.055 117.867 89.8249C117.867 69.5947 101.467 53.1949 81.2372 53.1949C61.007 53.1949 44.6072 69.5947 44.6072 89.8249C44.6072 110.055 61.007 126.455 81.2372 126.455Z" stroke="black" stroke-miterlimit="10"/>
<path opacity="0.5" d="M66.9841 98.9661L81.2373 89.8249L65.9259 64.7781" stroke="black" stroke-miterlimit="10"/>
</g>
<g opacity="0.5">
<path opacity="0.5" d="M134.693 192.332H38.6406V347.537H134.693V192.332Z" stroke="black" stroke-miterlimit="10"/>
<path opacity="0.5" d="M130.891 201.009H42.4338V254.733H130.891V201.009Z" stroke="black" stroke-miterlimit="10"/>
<path opacity="0.5" d="M91.8193 222.173H78.2499V234.652H91.8193V222.173Z" stroke="black" stroke-miterlimit="10"/>
<path opacity="0.5" d="M130.891 262.873H42.4338V316.597H130.891V262.873Z" stroke="black" stroke-miterlimit="10"/>
<path opacity="0.5" d="M91.8193 284.037H78.2499V296.516H91.8193V284.037Z" stroke="black" stroke-miterlimit="10"/>
<path opacity="0.5" d="M130.891 325.283H42.4338V346.992H130.891V325.283Z" stroke="black" stroke-miterlimit="10"/>
</g>
<g opacity="0.5">
<path opacity="0.5" d="M68.3272 174.709H43.4595L46.569 192.283H65.2177L68.3272 174.709Z" stroke="black" stroke-miterlimit="10"/>
<path opacity="0.5" d="M59.0557 148.058C59.0557 151.599 55.5555 155.384 55.5555 155.384C55.5555 155.384 50.1831 151.575 50.1831 148.058C50.1831 144.542 54.6194 139.772 54.6194 139.772C54.6194 139.772 59.0557 144.509 59.0557 148.058Z" stroke="black" stroke-miterlimit="10"/>
<path opacity="0.5" d="M46.3981 157.916C48.6691 160.635 48.4168 165.804 48.4168 165.804C48.4168 165.804 41.8559 166.325 39.5849 163.606C37.3138 160.887 37.6801 154.4 37.6801 154.4C37.6801 154.4 44.1433 155.222 46.3981 157.916Z" stroke="black" stroke-miterlimit="10"/>
<path opacity="0.5" d="M63.3943 150.509C65.8363 147.961 71.6564 148.758 71.6564 148.758C71.6564 148.758 72.2344 154.139 69.768 156.687C67.3015 159.235 60.814 159.544 60.814 159.544C60.814 159.544 60.9279 153.032 63.3943 150.509Z" stroke="black" stroke-miterlimit="10"/>
<path opacity="0.5" d="M67.2446 169.572C63.9316 168.319 61.6117 163.695 61.6117 163.695C61.6117 163.695 67.0818 160.024 70.3948 161.253C73.7077 162.483 76.5649 168.335 76.5649 168.335C76.5649 168.335 70.5576 170.834 67.2446 169.572Z" stroke="black" stroke-miterlimit="10"/>
<path opacity="0.5" d="M55.3195 174.432V146.886" stroke="black" stroke-miterlimit="10"/>
<path opacity="0.5" d="M55.0835 164.859L68.8564 152.959" stroke="black" stroke-miterlimit="10"/>
<path opacity="0.5" d="M55.3195 171.16L41.3187 160.195" stroke="black" stroke-miterlimit="10"/>
<path opacity="0.5" d="M58.5836 162.295L69.3203 166.496" stroke="black" stroke-miterlimit="10"/>
</g>
<path opacity="0.5" d="M385.128 105.226H198.453V229.882H385.128V105.226Z" stroke="black" stroke-miterlimit="10"/>
<path opacity="0.5" d="M382.629 106.903H200.96V228.213H382.629V106.903Z" stroke="black" stroke-miterlimit="10"/>
<path opacity="0.3" d="M222.946 125.071C222.946 125.071 224.941 135.808 224.941 138.99V150.118C224.941 150.118 232.893 150.517 239.251 150.118C245.608 149.719 253.17 145.747 253.17 145.747C253.17 145.747 250.386 135.01 250.386 132.226C250.386 129.442 248.758 122.686 248.758 122.686L222.946 125.071Z" fill="white" stroke="black" stroke-miterlimit="10"/>
<path opacity="0.3" d="M223.744 191.876C223.744 191.876 222.556 201.017 222.556 204.998C222.556 208.978 220.561 215.336 220.561 215.336C220.561 215.336 230.11 218.917 232.495 218.917C234.88 218.917 245.217 218.103 245.217 218.103L246.805 194.644C246.805 194.644 226.927 192.674 223.744 191.876Z" fill="white" stroke="black" stroke-miterlimit="10"/>
<path opacity="0.3" d="M267.887 142.564L272.69 164.428C272.69 164.428 278.657 164.827 285.014 164.827C291.371 164.827 302.108 158.86 302.108 158.86C302.108 158.86 296.939 148.522 296.939 145.739C296.939 142.955 295.311 135.002 295.311 135.002C295.311 135.002 279.031 140.171 276.589 140.57C274.147 140.969 267.887 142.564 267.887 142.564Z" fill="white" stroke="black" stroke-miterlimit="10"/>
<path opacity="0.3" d="M303.671 136.605C303.671 136.605 302.482 150.916 302.482 152.511C302.482 154.106 302.083 160.464 302.083 160.464C306.167 161.084 310.281 161.481 314.407 161.652C318.787 161.652 326.341 161.253 326.341 161.253C326.341 161.253 325.942 147.342 326.74 146.146C327.537 144.949 327.928 138.592 327.928 138.592C327.928 138.592 305.25 136.996 303.671 136.605Z" fill="white" stroke="black" stroke-miterlimit="10"/>
<path opacity="0.3" d="M312.421 168.417V177.957C312.421 179.544 311.607 191.078 311.607 191.078C311.607 191.078 321.945 191.477 325.926 191.078C329.906 190.679 337.851 188.294 337.851 188.294L336.662 175.572L335.848 166.821C335.848 166.821 316.792 169.605 312.421 168.417Z" fill="white" stroke="black" stroke-miterlimit="10"/>
<path opacity="0.3" d="M372.47 114.774L363.321 115.173H358.551V121.929C358.551 123.915 358.152 130.281 358.152 131.469C358.152 132.658 364.517 133.463 367.301 133.463H377.24L377.639 113.976L372.47 114.774Z" fill="white" stroke="black" stroke-miterlimit="10"/>
<g opacity="0.5">
<path opacity="0.5" d="M349.401 157.68H366.503" stroke="black" stroke-miterlimit="10"/>
<path opacity="0.5" d="M349.401 161.652H366.503" stroke="black" stroke-miterlimit="10"/>
<path opacity="0.5" d="M349.401 165.633H366.503" stroke="black" stroke-miterlimit="10"/>
<path opacity="0.5" d="M349.401 169.605H366.503" stroke="black" stroke-miterlimit="10"/>
</g>
<g opacity="0.5">
<path opacity="0.5" d="M261.123 112.348H317.59" stroke="black" stroke-miterlimit="10"/>
<path opacity="0.5" d="M261.123 116.321H317.59" stroke="black" stroke-miterlimit="10"/>
</g>
<g opacity="0.5">
<path opacity="0.5" d="M318.787 199.031H335.881" stroke="black" stroke-miterlimit="10"/>
<path opacity="0.5" d="M318.787 203.012H335.881" stroke="black" stroke-miterlimit="10"/>
<path opacity="0.5" d="M318.787 206.984H335.881" stroke="black" stroke-miterlimit="10"/>
<path opacity="0.5" d="M318.787 210.964H335.881" stroke="black" stroke-miterlimit="10"/>
</g>
<g opacity="0.5">
<path opacity="0.5" d="M212.609 172.788H229.711" stroke="black" stroke-miterlimit="10"/>
<path opacity="0.5" d="M212.609 176.768H229.711" stroke="black" stroke-miterlimit="10"/>
<path opacity="0.5" d="M212.609 180.741H229.711" stroke="black" stroke-miterlimit="10"/>
<path opacity="0.5" d="M212.609 184.721H229.711" stroke="black" stroke-miterlimit="10"/>
</g>
<g opacity="0.5">
<path opacity="0.5" d="M333.097 122.686H350.199" stroke="black" stroke-miterlimit="10"/>
<path opacity="0.5" d="M333.097 126.658H350.199" stroke="black" stroke-miterlimit="10"/>
<path opacity="0.5" d="M333.097 130.639H350.199" stroke="black" stroke-miterlimit="10"/>
<path opacity="0.5" d="M333.097 134.611H350.199" stroke="black" stroke-miterlimit="10"/>
</g>
<path opacity="0.5" d="M270.492 160.659L260.683 163.459L263.207 165.641C258.624 168.661 248.913 173.83 242.556 168.579C234.033 161.538 236.329 155.458 236.426 155.197L235.677 154.896L234.92 154.587C234.798 154.88 232.022 161.986 241.522 169.833C243.685 171.611 246.414 172.556 249.214 172.495C255.148 172.495 261.269 168.962 264.501 166.797L267.692 169.556L270.492 160.659Z" fill="black"/>
<path opacity="0.5" d="M369.483 143.923L366.65 134.481L361.457 142.035L364.338 142.71L361.343 153.48L362.914 153.919L365.925 143.085L369.483 143.923Z" fill="black"/>
<path opacity="0.3" d="M239.251 126.26C239.257 125.786 239.123 125.322 238.864 124.925C238.606 124.528 238.235 124.217 237.799 124.032C237.364 123.847 236.883 123.796 236.418 123.884C235.953 123.973 235.525 124.199 235.188 124.532C234.852 124.865 234.622 125.291 234.528 125.755C234.434 126.219 234.481 126.7 234.662 127.138C234.842 127.575 235.149 127.949 235.543 128.212C235.937 128.474 236.4 128.614 236.874 128.612C237.499 128.61 238.099 128.362 238.544 127.922C238.988 127.482 239.242 126.885 239.251 126.26Z" fill="white" stroke="black" stroke-miterlimit="10"/>
<path opacity="0.3" d="M282.995 141.376C282.995 140.904 282.855 140.443 282.593 140.05C282.331 139.658 281.959 139.353 281.523 139.172C281.087 138.992 280.607 138.944 280.145 139.036C279.682 139.128 279.257 139.356 278.924 139.689C278.59 140.023 278.363 140.448 278.271 140.91C278.179 141.373 278.226 141.852 278.407 142.288C278.587 142.724 278.893 143.097 279.285 143.359C279.677 143.621 280.138 143.761 280.61 143.761C281.243 143.761 281.849 143.509 282.297 143.062C282.744 142.615 282.995 142.008 282.995 141.376Z" fill="#92E3A9" stroke="black" stroke-miterlimit="10"/>
<path opacity="0.3" d="M316.792 140.179C318.11 140.179 319.177 139.111 319.177 137.794C319.177 136.477 318.11 135.409 316.792 135.409C315.475 135.409 314.407 136.477 314.407 137.794C314.407 139.111 315.475 140.179 316.792 140.179Z" fill="white" stroke="black" stroke-miterlimit="10"/>
<path opacity="0.3" d="M324.745 173.187C326.062 173.187 327.13 172.119 327.13 170.802C327.13 169.484 326.062 168.417 324.745 168.417C323.428 168.417 322.36 169.484 322.36 170.802C322.36 172.119 323.428 173.187 324.745 173.187Z" fill="white" stroke="black" stroke-miterlimit="10"/>
<path opacity="0.3" d="M239.251 196.247C239.254 195.775 239.117 195.311 238.856 194.917C238.596 194.522 238.224 194.214 237.788 194.031C237.352 193.849 236.872 193.8 236.408 193.89C235.944 193.981 235.517 194.208 235.182 194.542C234.847 194.875 234.619 195.301 234.527 195.765C234.434 196.228 234.482 196.709 234.663 197.146C234.844 197.582 235.151 197.955 235.545 198.217C235.939 198.479 236.401 198.618 236.874 198.616C237.502 198.614 238.104 198.364 238.549 197.92C238.994 197.477 239.247 196.876 239.251 196.247Z" fill="#92E3A9" stroke="black" stroke-miterlimit="10"/>
<path opacity="0.3" d="M370.476 114.774C370.476 114.302 370.336 113.841 370.074 113.449C369.812 113.057 369.439 112.751 369.003 112.571C368.568 112.39 368.088 112.343 367.625 112.435C367.163 112.527 366.738 112.754 366.404 113.088C366.071 113.421 365.844 113.846 365.752 114.309C365.659 114.771 365.707 115.251 365.887 115.687C366.068 116.123 366.373 116.495 366.766 116.757C367.158 117.019 367.619 117.159 368.091 117.159C368.723 117.159 369.33 116.908 369.777 116.46C370.224 116.013 370.476 115.407 370.476 114.774Z" fill="#92E3A9" stroke="black" stroke-miterlimit="10"/>
<path d="M293.219 332.747V330.232L295.156 329.825L293.219 329.336V328.644L294.969 327.83L293.219 327.309V316.972H291.086V314.847L292.071 314.766L291.086 314.302V313.488L293.528 313.846L291.9 311.852L291.086 310.655V310.199L293.699 310.036C293.699 310.036 292.218 309.133 291.086 308.319V299.707H293.699C293.699 299.707 292.259 299.023 291.086 298.437V295.238H231.412V300.456L228.734 301.522L231.388 302.702V303.313C230.574 303.785 229.165 304.64 228.946 305.152C228.587 305.877 227.855 307.505 227.855 307.505C227.855 307.505 229.67 307.147 230.215 306.959C230.623 306.877 231.047 306.931 231.42 307.114V307.212L229.304 309.32L231.412 310.248V317.403H236.101V317.9C235.763 317.981 235.431 318.084 235.108 318.209C234.042 318.747 233.011 319.354 232.023 320.024L234.741 319.845L233.471 321.839L236.101 322.002V331.892H230.134V335.49C229.707 335.578 229.301 335.747 228.938 335.987C228.513 336.294 228.123 336.646 227.773 337.037C226.959 337.908 226.219 338.893 226.219 338.893L229.304 337.981L227.676 340.162L228.946 340.521L227.855 342.149L230.142 342.311V345.95H289.784V343.508L291.868 343.589L291.135 343.231L292.95 342.686L291.135 340.871L290.598 338.697L289.784 338.559V332.731L293.219 332.747Z" fill="#B5B5B5"/>
<path d="M234.017 300.797H270.297" stroke="#263238" stroke-miterlimit="10"/>
<path d="M234.383 303.882H255.059" stroke="#263238" stroke-miterlimit="10"/>
<path d="M286.267 308.229H249.979" stroke="#263238" stroke-miterlimit="10"/>
<path d="M237.826 317.484H286.813" stroke="#263238" stroke-miterlimit="10"/>
<path d="M236.923 311.135H272.478" stroke="#263238" stroke-miterlimit="10"/>
<path d="M287.716 321.115H261.595" stroke="#263238" stroke-miterlimit="10"/>
<path d="M286.626 326.015H238.738" stroke="#263238" stroke-miterlimit="10"/>
<path d="M248.164 330.183H276.467" stroke="#263238" stroke-miterlimit="10"/>
<path d="M288.083 332.723H240.911" stroke="#263238" stroke-miterlimit="10"/>
<path d="M233.838 339.438H267.944" stroke="#263238" stroke-miterlimit="10"/>
<path d="M264.68 335.987H239.642" stroke="#263238" stroke-miterlimit="10"/>
<path d="M243.451 341.432H279.731" stroke="#263238" stroke-miterlimit="10"/>
<path d="M285.177 335.629H275.376" stroke="#263238" stroke-miterlimit="10"/>
<path d="M309.499 281.978V279.462L311.436 279.055L309.499 278.567V277.875L311.249 277.061L309.499 276.532V266.178H307.366V264.053L308.351 263.972L307.366 263.508V262.694L309.808 263.06L308.18 261.058L307.366 259.861V259.414L309.979 259.251C309.979 259.251 308.498 258.339 307.366 257.525V248.937H309.979C309.979 248.937 308.539 248.254 307.366 247.676V244.469H247.692V249.695L245.038 250.753L247.692 251.933V252.544C246.878 253.016 245.47 253.878 245.25 254.383C244.892 255.108 244.159 256.744 244.159 256.744C244.159 256.744 245.975 256.377 246.52 256.198C246.927 256.11 247.351 256.161 247.725 256.345V256.41L245.616 258.518L247.725 259.446V266.601H252.413V267.106C252.075 267.183 251.743 267.287 251.42 267.415C250.353 267.949 249.322 268.552 248.335 269.222L251.054 269.043L249.752 271.062L252.381 271.225V281.115H246.414V284.721C245.986 284.805 245.579 284.973 245.218 285.217C244.795 285.524 244.405 285.873 244.054 286.259C243.24 287.13 242.499 288.115 242.499 288.115L245.584 287.212L243.956 289.385L245.226 289.751L244.135 291.379L246.422 291.542V295.181H306.064V292.739L308.148 292.828L307.415 292.462L309.231 291.917L307.415 290.101L306.878 287.928L306.064 287.79V281.961L309.499 281.978Z" fill="#B5B5B5"/>
<path d="M250.297 250.028H286.577" stroke="#263238" stroke-miterlimit="10"/>
<path d="M250.663 253.113H271.339" stroke="#263238" stroke-miterlimit="10"/>
<path d="M302.547 257.468H266.259" stroke="#263238" stroke-miterlimit="10"/>
<path d="M254.106 266.715H303.093" stroke="#263238" stroke-miterlimit="10"/>
<path d="M253.203 260.366H288.758" stroke="#263238" stroke-miterlimit="10"/>
<path d="M303.996 270.346H277.875" stroke="#263238" stroke-miterlimit="10"/>
<path d="M302.906 275.246H255.018" stroke="#263238" stroke-miterlimit="10"/>
<path d="M264.444 279.414H292.747" stroke="#263238" stroke-miterlimit="10"/>
<path d="M304.363 281.953H257.191" stroke="#263238" stroke-miterlimit="10"/>
<path d="M250.118 288.669H284.224" stroke="#263238" stroke-miterlimit="10"/>
<path d="M280.96 285.226H255.922" stroke="#263238" stroke-miterlimit="10"/>
<path d="M259.731 290.663H296.011" stroke="#263238" stroke-miterlimit="10"/>
<path d="M301.457 284.859H291.656" stroke="#263238" stroke-miterlimit="10"/>
<path d="M347.7 332.747V330.232L349.637 329.825L347.7 329.336V328.644L349.458 327.83L347.7 327.309V316.972H345.567V314.847L346.552 314.766L345.567 314.302V313.488L348.009 313.846L346.381 311.852L345.567 310.655V310.199L348.189 310.036C348.189 310.036 346.707 309.133 345.567 308.319V299.707H348.189C348.189 299.707 346.74 299.023 345.567 298.437V295.238H285.893V300.456L283.272 301.522L285.926 302.702V303.313C285.112 303.785 283.712 304.64 283.484 305.152C283.126 305.877 282.401 307.505 282.401 307.505C282.401 307.505 284.216 307.147 284.754 306.959C285.161 306.877 285.585 306.931 285.958 307.114V307.212L283.785 309.32L285.893 310.248V317.403H290.598V317.9C290.261 317.982 289.929 318.085 289.605 318.209C288.54 318.749 287.51 319.356 286.52 320.024L289.247 319.845L287.977 321.839L290.598 322.002V331.892H284.631V335.49C284.205 335.578 283.799 335.747 283.435 335.987C283.012 336.296 282.622 336.648 282.271 337.037C281.457 337.908 280.716 338.893 280.716 338.893L283.801 337.981L282.173 340.162L283.443 340.521L282.36 342.149L284.64 342.311V345.95H344.322V343.508L346.406 343.589L345.681 343.231L347.497 342.686L345.681 340.871L345.136 338.697L344.322 338.559V332.731L347.7 332.747Z" fill="#B5B5B5" stroke="#263238" stroke-miterlimit="10"/>
<path d="M288.498 300.797H324.786" stroke="#263238" stroke-miterlimit="10"/>
<path d="M288.864 303.882H309.548" stroke="#263238" stroke-miterlimit="10"/>
<path d="M340.749 308.229H304.469" stroke="#263238" stroke-miterlimit="10"/>
<path d="M292.316 317.484H341.294" stroke="#263238" stroke-miterlimit="10"/>
<path d="M291.404 311.135H326.959" stroke="#263238" stroke-miterlimit="10"/>
<path d="M342.197 321.115H316.076" stroke="#263238" stroke-miterlimit="10"/>
<path d="M341.115 326.015H293.219" stroke="#263238" stroke-miterlimit="10"/>
<path d="M302.653 330.183H330.956" stroke="#263238" stroke-miterlimit="10"/>
<path d="M342.564 332.723H295.392" stroke="#263238" stroke-miterlimit="10"/>
<path d="M288.319 339.438H322.425" stroke="#263238" stroke-miterlimit="10"/>
<path d="M319.161 335.987H294.123" stroke="#263238" stroke-miterlimit="10"/>
<path d="M297.932 341.432H334.22" stroke="#263238" stroke-miterlimit="10"/>
<path d="M339.658 335.629H329.865" stroke="#263238" stroke-miterlimit="10"/>
<path d="M362.678 332.747V330.232L364.615 329.825L362.678 329.336V328.644L364.436 327.83L362.678 327.309V316.972H360.545V314.847L361.53 314.766L360.545 314.302V313.488L362.987 313.846L361.359 311.852L360.545 310.655V310.199L363.166 310.036C363.166 310.036 361.685 309.133 360.545 308.319V299.707H363.166C363.166 299.707 361.717 299.023 360.545 298.437V295.238H300.871V300.456L298.217 301.522L300.871 302.702V303.313C300.057 303.785 298.657 304.64 298.429 305.152C298.071 305.877 297.346 307.505 297.346 307.505C297.346 307.505 299.161 307.147 299.699 306.959C300.106 306.877 300.53 306.931 300.903 307.114V307.212L298.738 309.32L300.846 310.248V317.403H305.535V317.9C305.198 317.982 304.866 318.085 304.542 318.209C303.477 318.749 302.446 319.356 301.457 320.024L304.184 319.845L302.914 321.839L305.535 322.002V331.892H299.568V335.49C299.142 335.578 298.736 335.747 298.372 335.987C297.949 336.296 297.559 336.648 297.208 337.037C296.394 337.908 295.653 338.893 295.653 338.893L298.738 337.981L297.11 340.162L298.38 340.521L297.297 342.149L299.576 342.311V345.95H359.251V343.508L361.335 343.589L360.61 343.231L362.425 342.686L360.602 340.887L360.057 338.714L359.243 338.575V332.747H362.678Z" fill="white" stroke="#263238" stroke-miterlimit="10"/>
<path d="M303.475 300.797H339.764" stroke="#263238" stroke-miterlimit="10"/>
<path d="M303.842 303.882H324.526" stroke="#263238" stroke-miterlimit="10"/>
<path d="M355.726 308.229H319.446" stroke="#263238" stroke-miterlimit="10"/>
<path d="M307.285 317.484H356.272" stroke="#263238" stroke-miterlimit="10"/>
<path d="M306.381 311.135H341.937" stroke="#263238" stroke-miterlimit="10"/>
<path d="M357.175 321.115H331.054" stroke="#263238" stroke-miterlimit="10"/>
<path d="M356.092 326.015H308.197" stroke="#263238" stroke-miterlimit="10"/>
<path d="M317.631 330.183H345.934" stroke="#263238" stroke-miterlimit="10"/>
<path d="M357.541 332.723H310.37" stroke="#263238" stroke-miterlimit="10"/>
<path d="M303.296 339.438H337.403" stroke="#263238" stroke-miterlimit="10"/>
<path d="M334.139 335.987H309.1" stroke="#263238" stroke-miterlimit="10"/>
<path d="M312.91 341.432H349.198" stroke="#263238" stroke-miterlimit="10"/>
<path d="M354.635 335.629H344.843" stroke="#263238" stroke-miterlimit="10"/>
<path d="M362.678 282.816V280.301L364.615 279.894L362.678 279.414V278.722L364.436 277.908L362.678 277.379V267.049H360.545V264.916L361.53 264.835L360.545 264.371V263.557L362.987 263.915L361.359 261.921L360.545 260.716V260.268L363.166 260.106C363.166 260.106 361.685 259.202 360.545 258.388V249.784H363.166C363.166 249.784 361.717 249.092 360.545 248.514V245.307H300.871V250.533L298.217 251.591L300.871 252.78V253.39C300.057 253.862 298.657 254.717 298.429 255.222C298.071 255.946 297.346 257.582 297.346 257.582C297.346 257.582 299.161 257.216 299.699 257.037C300.106 256.954 300.53 257.009 300.903 257.191V257.281L298.795 259.397L300.903 260.317V267.472H305.592V267.977C305.255 268.059 304.923 268.162 304.599 268.286C303.532 268.824 302.502 269.43 301.514 270.101L304.241 269.914L302.971 271.917L305.592 272.08V281.97H299.625V285.567C299.199 285.656 298.793 285.824 298.429 286.064C298.006 286.373 297.616 286.725 297.265 287.114C296.716 287.706 296.197 288.326 295.71 288.97L298.795 288.058L297.167 290.24L298.437 290.598L297.354 292.226L299.633 292.389V296.027H359.308V293.585L361.392 293.667L360.667 293.3L362.482 292.763L360.602 290.964L360.057 288.783L359.243 288.653V282.816H362.678Z" fill="white" stroke="#263238" stroke-miterlimit="10"/>
<path d="M303.475 250.867H339.764" stroke="#263238" stroke-miterlimit="10"/>
<path d="M303.842 253.952H324.526" stroke="#263238" stroke-miterlimit="10"/>
<path d="M355.726 258.307H319.446" stroke="#263238" stroke-miterlimit="10"/>
<path d="M307.285 267.562H356.272" stroke="#263238" stroke-miterlimit="10"/>
<path d="M306.381 261.213H341.937" stroke="#263238" stroke-miterlimit="10"/>
<path d="M357.175 271.184H331.054" stroke="#263238" stroke-miterlimit="10"/>
<path d="M356.092 276.084H308.197" stroke="#263238" stroke-miterlimit="10"/>
<path d="M317.631 280.26H345.934" stroke="#263238" stroke-miterlimit="10"/>
<path d="M357.541 282.8H310.37" stroke="#263238" stroke-miterlimit="10"/>
<path d="M303.296 289.507H337.403" stroke="#263238" stroke-miterlimit="10"/>
<path d="M334.139 286.064H309.1" stroke="#263238" stroke-miterlimit="10"/>
<path d="M312.91 291.51H349.198" stroke="#263238" stroke-miterlimit="10"/>
<path d="M354.635 285.698H344.843" stroke="#263238" stroke-miterlimit="10"/>
<path d="M255.808 345.071H186.211V341.359L255.808 337.655V345.071Z" fill="white" stroke="#263238" stroke-miterlimit="10"/>
<path d="M295.482 331.298L277.574 286.902L274.546 288.132V288.856L292.226 332.6C292.637 333.627 292.791 334.739 292.672 335.839C292.554 336.939 292.168 337.993 291.548 338.909C290.927 339.824 290.092 340.574 289.115 341.092C288.138 341.61 287.048 341.881 285.942 341.88H262.474V345.421H285.942C287.621 345.412 289.273 344.993 290.753 344.201C292.234 343.41 293.499 342.269 294.439 340.877C295.379 339.486 295.965 337.886 296.147 336.217C296.329 334.547 296.1 332.859 295.482 331.298Z" fill="white" stroke="#263238" stroke-miterlimit="10"/>
<path d="M286.344 225.618L280.817 224.951L268.312 328.586L273.84 329.253L286.344 225.618Z" fill="white" stroke="#263238" stroke-miterlimit="10"/>
<path d="M263.06 345.136H232.942V341.595C232.941 339.743 233.627 337.957 234.868 336.582C236.109 335.208 237.816 334.343 239.658 334.155L254.855 332.617C255.894 332.512 256.944 332.626 257.936 332.952C258.928 333.278 259.84 333.808 260.615 334.508C261.39 335.208 262.009 336.063 262.433 337.018C262.857 337.972 263.076 339.004 263.077 340.048L263.06 345.136Z" fill="white" stroke="#263238" stroke-miterlimit="10"/>
<path d="M129.279 198.942C129.279 198.942 122.857 183.402 116.776 182.051C110.696 180.7 85.0304 193.537 92.1122 205.364C99.194 217.191 106.642 216.508 113.398 213.504C120.154 210.5 129.279 198.942 129.279 198.942Z" fill="#263238" stroke="#263238" stroke-miterlimit="10"/>
<path d="M101.571 187.79C101.571 187.79 94.8147 185.429 91.4366 185.429C88.0585 185.429 87.3666 196.239 87.3666 196.239C87.3666 196.239 89.7516 185.763 101.571 187.79Z" fill="#263238" stroke="#263238" stroke-miterlimit="10"/>
<path d="M174.546 210.769C174.546 210.769 178.266 215.832 179.275 220.228C180.285 224.623 177.59 229.345 178.6 233.064C179.609 236.784 184.347 240.154 184.005 242.523C183.663 244.892 176.915 248.604 176.915 248.604C176.915 248.604 171.168 262.442 168.775 263.467C166.382 264.493 158.331 262.108 154.66 260.431C150.989 258.754 146.211 259.08 146.211 259.08L124.233 247.928C124.233 247.928 126.601 243.533 123.899 237.118C121.197 230.704 119.829 219.886 136.394 209.076C152.959 198.266 174.546 210.769 174.546 210.769Z" fill="white" stroke="#263238" stroke-miterlimit="10"/>
<path d="M171.51 247.928C171.051 247.224 170.36 246.703 169.557 246.456C168.753 246.209 167.889 246.252 167.114 246.577" stroke="#263238" stroke-miterlimit="10"/>
<path d="M174.196 231.371C174.196 233.056 173.667 234.416 173.016 234.416C172.365 234.416 171.827 233.056 171.827 231.371C171.827 229.686 172.356 228.335 173.016 228.335C173.675 228.335 174.196 229.695 174.196 231.371Z" fill="#263238"/>
<path d="M170.834 222.93C171.149 222.606 171.531 222.355 171.952 222.194C172.374 222.033 172.826 221.966 173.276 221.998C173.727 222.03 174.165 222.16 174.56 222.378C174.955 222.597 175.297 222.899 175.564 223.264" stroke="#263238" stroke-miterlimit="10"/>
<path d="M173.366 238.128C176.629 238.128 179.275 233.893 179.275 228.669C179.275 223.445 176.629 219.21 173.366 219.21C170.102 219.21 167.456 223.445 167.456 228.669C167.456 233.893 170.102 238.128 173.366 238.128Z" stroke="#263238" stroke-miterlimit="10"/>
<path d="M167.456 228.669L141.099 231.371" stroke="#263238" stroke-miterlimit="10"/>
<path d="M135.694 237.794C135.694 237.794 129.279 244.892 125.559 244.892C121.839 244.892 114.75 240.154 111.371 235.124C107.993 230.093 114.75 217.216 118.47 209.784C122.189 202.352 128.938 189.849 142.792 187.147C156.646 184.444 162.051 185.462 173.87 191.542C185.69 197.623 184.347 206.406 182.32 209.108C180.827 210.986 179.126 212.687 177.248 214.18C177.248 214.18 184.68 210.11 187.383 211.477C190.085 212.845 190.093 214.513 190.093 214.513C190.093 214.513 181.644 214.855 180.627 214.855C179.609 214.855 176.239 216.54 176.239 216.54C176.239 216.54 169.141 218.233 165.429 217.216C161.717 216.198 156.646 212.454 156.288 216.524C155.93 220.594 150.883 227.676 148.856 228.351C146.829 229.027 143.785 229.361 141.082 231.388C138.38 233.415 135.694 237.794 135.694 237.794Z" fill="#263238" stroke="#263238" stroke-miterlimit="10"/>
<path d="M143.467 234.749C143.467 234.749 138.738 224.981 134.009 229.011C129.279 233.04 134.342 243.533 136.369 244.55C138.396 245.568 142.45 242.857 142.45 242.857C142.45 242.857 142.792 247.252 144.143 249.279" fill="white"/>
<path d="M143.467 234.749C143.467 234.749 138.738 224.981 134.009 229.011C129.279 233.04 134.342 243.533 136.369 244.55C138.396 245.568 142.45 242.857 142.45 242.857C142.45 242.857 142.792 247.252 144.143 249.279" stroke="#263238" stroke-miterlimit="10"/>
<path d="M116.443 259.08C116.443 259.08 122.141 253.333 122.141 249.621C122.141 245.909 124.168 242.857 137.004 248.946C149.841 255.034 154.277 262.108 151.575 264.143C148.872 266.178 143.126 268.213 141.807 269.548C140.488 270.883 135.726 277.322 135.726 277.322C135.726 277.322 127.586 259.08 116.443 259.08Z" fill="#92E3A9" stroke="#263238" stroke-miterlimit="10"/>
<path d="M130.435 246.951C130.435 246.951 127.57 247.529 128.148 249.532C128.488 250.746 128.488 252.03 128.148 253.244L126.43 255.824" stroke="#263238" stroke-miterlimit="10"/>
<path d="M137.045 248.946C137.045 248.946 133.862 252.389 134.147 253.528C134.432 254.668 135.01 256.394 133.862 256.964C132.843 257.419 131.793 257.803 130.72 258.111" stroke="#263238" stroke-miterlimit="10"/>
<path d="M138.152 262.206C137.558 263.077 137.012 263.834 137.012 263.834" stroke="#263238" stroke-miterlimit="10"/>
<path d="M143.02 252.959C143.02 252.959 143.59 255.531 142.442 257.248C141.294 258.966 139.87 258.966 139.585 259.821" stroke="#263238" stroke-miterlimit="10"/>
<path d="M149.312 257.533C148.785 259.025 148.115 260.462 147.309 261.823C146.447 262.971 143.305 262.686 142.727 264.11C142.165 265.21 141.387 266.184 140.439 266.976" stroke="#263238" stroke-miterlimit="10"/>
<path d="M215.042 311.249C212.527 310.248 205.486 309.239 205.486 309.239" stroke="#263238" stroke-miterlimit="10"/>
<path d="M202.466 308.229C202.466 308.229 208.001 306.723 211.518 308.229" stroke="#263238" stroke-miterlimit="10"/>
<path d="M213.919 319.902C213.919 319.902 216.907 325.055 217.721 326.683C218.535 328.311 218.803 329.125 217.989 329.125C217.175 329.125 214.188 327.773 213.919 326.145C213.809 325.286 213.533 324.457 213.105 323.703C213.105 323.703 214.635 329.67 214.188 329.939C212.421 331.021 211.209 329.125 211.209 329.125L209.035 322.613C209.035 322.613 208.221 325.869 207.953 326.683C207.684 327.497 206.048 325.331 206.048 323.703C206.074 322.432 206.167 321.164 206.325 319.902L204.697 318.543C204.697 318.543 207.139 316.101 209.849 316.101C212.56 316.101 213.919 319.902 213.919 319.902Z" fill="white" stroke="#263238" stroke-miterlimit="10"/>
<path d="M172.137 311.762L173.195 311.689C177.875 311.379 196.451 310.134 197.615 310.134C198.974 310.134 206.837 314.473 206.837 314.473C209.283 314.325 211.736 314.418 214.163 314.749C216.882 315.287 219.324 318.543 220.407 319.633C221.489 320.724 225.022 322.075 223.117 322.613C221.213 323.15 220.407 323.427 219.324 323.158C218.241 322.889 213.895 319.902 213.895 319.902L206.837 318.819C206.837 318.819 200.325 322.344 199.511 322.613C198.697 322.881 200.602 324.786 202.499 326.145C204.395 327.505 207.383 329.401 207.114 331.567C206.845 333.732 206.023 333.471 203.858 331.567C201.693 329.662 199.511 328.587 196.255 326.414C193.28 324.275 190.47 321.916 187.847 319.357L186.219 317.729C186.219 317.729 167.228 323.972 160.716 325.869C154.756 327.545 148.688 328.815 142.556 329.67C138.486 330.215 130.623 328.587 128.449 326.959C126.276 325.331 120.578 320.171 120.578 320.171L130.346 300.635C130.346 300.635 142.019 311.493 146.626 312.576C151.233 313.659 172.137 311.762 172.137 311.762Z" fill="white" stroke="#263238" stroke-miterlimit="10"/>
<path d="M146.626 312.576C142.019 311.493 130.346 300.635 130.346 300.635L120.578 320.171C120.578 320.171 126.276 325.331 128.449 326.959C130.623 328.587 138.486 330.215 142.556 329.67C148.123 328.892 153.639 327.778 159.072 326.333C159.218 325.087 159.332 323.752 159.381 322.344C159.487 319.267 159.381 315.783 159.226 312.682C153.984 312.983 148.685 313.089 146.626 312.576Z" fill="#92E3A9" stroke="#263238" stroke-miterlimit="10"/>
<path d="M139.87 280.496C139.846 274.883 138.073 269.418 134.798 264.859C133.224 262.552 131.094 260.679 128.604 259.414C117.322 254.285 109.393 258.005 102.247 267.554C88.0585 286.479 78.3556 308.954 74.5705 318.233C66.5852 337.574 65.12 344.55 65.12 344.55H118.502C118.502 344.55 115.8 337.794 115.8 336.109C115.8 334.424 118.502 331.038 118.502 331.038C118.502 331.038 134.717 325.291 137.753 316.508C139.959 310.044 140.008 290.419 139.87 280.496Z" fill="#92E3A9" stroke="#263238" stroke-miterlimit="10"/>
<path d="M218.559 285.095C222.847 285.955 227.064 287.133 231.176 288.62" stroke="#263238" stroke-miterlimit="10"/>
<path d="M226.609 283.589C229.682 284.859 232.562 286.552 235.165 288.62" stroke="#263238" stroke-miterlimit="10"/>
<path d="M105.291 294.212C105.291 294.212 121.848 339.487 126.235 340.838C130.623 342.189 135.018 340.162 137.045 338.811C139.072 337.46 197.859 295.905 197.859 295.905C197.859 295.905 208.335 301.994 210.362 301.994C212.389 301.994 216.443 308.075 217.452 310.134C218.461 312.193 219.479 313.17 219.821 311.143C220.163 309.116 217.452 304.729 216.776 303.378C216.388 302.611 216.051 301.82 215.767 301.009C216.94 301.166 218.081 301.509 219.145 302.027C220.154 302.702 223.533 307.09 224.55 308.441C225.568 309.792 227.928 311.143 227.928 309.116C227.928 307.09 224.208 303.378 223.533 301.685C223.143 300.691 222.429 299.859 221.506 299.324C221.506 299.324 227.928 300.333 229.646 301.009C231.363 301.685 232.356 305.738 234.383 306.08C236.41 306.422 233.366 302.01 232.69 300C232.014 297.989 223.565 295.27 223.565 295.27C223.565 295.27 228.97 294.595 230.663 294.595C232.356 294.595 236.06 297.924 237.053 297.924C238.046 297.924 238.062 296.906 235.36 294.88C232.657 292.853 227.928 290.81 225.901 290.81C223.859 290.754 221.825 290.528 219.821 290.134C217.794 289.8 202.588 286.756 199.552 286.756C196.516 286.756 150.899 308.042 150.899 308.042L147.944 305.413C147.888 305.362 147.817 305.331 147.741 305.323L147.244 305.266C145.541 305.123 143.843 305.603 142.466 306.617C142.222 306.78 141.978 306.756 141.774 306.349C141.099 304.998 136.711 277.973 134.343 272.226C131.974 266.479 124.575 253.651 111.713 261.082" fill="white"/>
<path d="M105.291 294.212C105.291 294.212 121.848 339.487 126.235 340.838C130.623 342.189 135.018 340.162 137.045 338.811C139.072 337.46 197.859 295.905 197.859 295.905C197.859 295.905 208.335 301.994 210.362 301.994C212.389 301.994 216.443 308.075 217.452 310.134C218.461 312.193 219.479 313.17 219.821 311.143C220.163 309.116 217.452 304.729 216.776 303.378C216.388 302.611 216.051 301.82 215.767 301.009C216.94 301.166 218.081 301.509 219.145 302.027C220.154 302.702 223.533 307.09 224.55 308.441C225.568 309.792 227.928 311.143 227.928 309.116C227.928 307.09 224.208 303.378 223.533 301.685C223.143 300.691 222.429 299.859 221.506 299.324C221.506 299.324 227.928 300.333 229.646 301.009C231.363 301.685 232.356 305.738 234.383 306.08C236.41 306.422 233.366 302.01 232.69 300C232.014 297.989 223.565 295.27 223.565 295.27C223.565 295.27 228.97 294.595 230.663 294.595C232.356 294.595 236.06 297.924 237.053 297.924C238.046 297.924 238.062 296.906 235.36 294.88C232.657 292.853 227.928 290.81 225.901 290.81C223.859 290.754 221.825 290.528 219.821 290.134C217.794 289.8 202.588 286.756 199.552 286.756C196.516 286.756 150.899 308.042 150.899 308.042L147.944 305.413C147.888 305.362 147.817 305.331 147.741 305.323L147.244 305.266C145.541 305.123 143.843 305.603 142.466 306.617C142.222 306.78 141.978 306.756 141.774 306.349C141.099 304.998 136.711 277.973 134.343 272.226C131.974 266.479 124.575 253.651 111.713 261.082" stroke="#263238" stroke-miterlimit="10"/>
<path d="M105.291 294.212C105.291 294.212 121.848 339.487 126.235 340.838C130.623 342.189 135.018 340.162 137.045 338.811C138.12 338.095 154.953 326.202 170.663 315.116L164.819 301.636C156.964 305.234 150.899 308.066 150.899 308.066L147.944 305.437C147.888 305.387 147.817 305.355 147.741 305.348L147.244 305.291C145.541 305.147 143.843 305.628 142.466 306.642C142.222 306.805 141.978 306.78 141.774 306.373C141.099 305.022 136.711 277.997 134.343 272.25C131.974 266.504 124.575 253.675 111.713 261.107" fill="#92E3A9"/>
<path d="M105.291 294.212C105.291 294.212 121.848 339.487 126.235 340.838C130.623 342.189 135.018 340.162 137.045 338.811C138.12 338.095 154.953 326.202 170.663 315.116L164.819 301.636C156.964 305.234 150.899 308.066 150.899 308.066L147.944 305.437C147.888 305.387 147.817 305.355 147.741 305.348L147.244 305.291C145.541 305.147 143.843 305.628 142.466 306.642C142.222 306.805 141.978 306.78 141.774 306.373C141.099 305.022 136.711 277.997 134.343 272.25C131.974 266.504 124.575 253.675 111.713 261.107" stroke="#263238" stroke-miterlimit="10"/>
<path d="M141.823 307.472C139.25 310.615 136.412 313.532 133.341 316.19" stroke="#263238" stroke-miterlimit="10"/>
<path d="M139.886 309.654C139.886 309.654 134.318 311.591 129.711 312.804" stroke="#263238" stroke-miterlimit="10"/>
<path d="M65.12 344.55L55.7997 262.824C55.6866 261.83 55.3755 260.869 54.8846 259.997C54.3937 259.125 53.733 258.36 52.9415 257.747C52.1501 257.135 51.244 256.687 50.2766 256.431C49.3093 256.175 48.3005 256.115 47.3097 256.255C45.3639 256.533 43.605 257.564 42.4127 259.126C41.2203 260.688 40.6899 262.657 40.936 264.607L51.0948 344.68L65.12 344.55Z" fill="#263238" stroke="#263238" stroke-miterlimit="10"/>
<path d="M109.817 323.093C109.181 322.448 108.351 322.029 107.454 321.9C106.558 321.771 105.644 321.938 104.851 322.377C102.01 323.939 101.441 330.329 102.719 334.872C103.997 339.414 109.817 336.858 109.817 336.858L109.678 333.878C109.678 333.878 104.851 334.44 104.566 331.892C104.282 329.344 104.143 326.072 107.008 326.072C109.874 326.072 110.704 326.78 110.704 326.78L109.817 323.093Z" fill="white" stroke="#263238" stroke-miterlimit="10"/>
<path d="M131.884 317.525H109.345V344.501H131.884V317.525Z" fill="white" stroke="#263238" stroke-miterlimit="10"/>
<path d="M374.554 344.355H24.4037V352.258H374.554V344.355Z" fill="#263238" stroke="#263238" stroke-miterlimit="10"/>
</svg>
