<svg width="345" height="345" viewBox="0 0 345 345" fill="none" xmlns="http://www.w3.org/2000/svg">
<path d="M172.5 328.937C257.632 328.937 326.646 291.406 326.646 245.109C326.646 198.812 257.632 161.281 172.5 161.281C87.3675 161.281 18.354 198.812 18.354 245.109C18.354 291.406 87.3675 328.937 172.5 328.937Z" fill="#F5F5F5"/>
<path d="M172.5 240.72C185.327 240.72 195.725 234.715 195.725 227.307C195.725 219.899 185.327 213.893 172.5 213.893C159.673 213.893 149.275 219.899 149.275 227.307C149.275 234.715 159.673 240.72 172.5 240.72Z" fill="#E0E0E0"/>
<path d="M259.116 276.566C279.393 276.566 295.831 267.076 295.831 255.369C295.831 243.662 279.393 234.172 259.116 234.172C238.839 234.172 222.401 243.662 222.401 255.369C222.401 267.076 238.839 276.566 259.116 276.566Z" fill="#E0E0E0"/>
<path d="M78.9498 278.857C99.2269 278.857 115.665 269.367 115.665 257.66C115.665 245.953 99.2269 236.463 78.9498 236.463C58.6727 236.463 42.2349 245.953 42.2349 257.66C42.2349 269.367 58.6727 278.857 78.9498 278.857Z" fill="#E0E0E0"/>
<path d="M313.95 240.306L307.016 237.47C306.144 231.476 305.642 225.434 305.511 219.379C305.511 208.049 312.57 194.194 321.526 196.512C330.482 198.83 319.001 211.506 317.138 221.297C315.275 231.088 313.95 240.306 313.95 240.306Z" fill="#66A678"/>
<path opacity="0.3" d="M313.95 240.306L307.016 237.47C306.144 231.476 305.642 225.434 305.511 219.379C305.511 208.049 312.57 194.194 321.526 196.512C330.482 198.83 319.001 211.506 317.138 221.297C315.275 231.088 313.95 240.306 313.95 240.306Z" fill="black"/>
<path d="M310.59 239.43C310.666 239.42 310.734 239.38 310.781 239.319C310.827 239.258 310.848 239.182 310.838 239.106C307.533 214.266 318.704 200.466 318.815 200.348C318.864 200.289 318.888 200.212 318.881 200.135C318.874 200.058 318.836 199.987 318.777 199.938C318.717 199.888 318.641 199.865 318.564 199.872C318.487 199.879 318.416 199.916 318.366 199.976C318.256 200.114 306.919 214.079 310.259 239.182C310.264 239.22 310.276 239.257 310.296 239.29C310.315 239.323 310.341 239.352 310.372 239.375C310.403 239.399 310.438 239.415 310.475 239.425C310.513 239.434 310.552 239.436 310.59 239.43Z" fill="white"/>
<path d="M317.51 241.962L313.888 240.32C312.803 234.739 312.968 228.987 314.371 223.477C316.696 214.549 324.438 209.042 328.337 209.953C333.104 211.064 333.567 215.473 332.173 218.544C330.51 222.18 319.042 232.026 317.51 241.962Z" fill="#66A678"/>
<path opacity="0.1" d="M317.51 241.962L313.888 240.32C312.803 234.739 312.968 228.987 314.371 223.477C316.696 214.549 324.438 209.042 328.337 209.953C333.104 211.064 333.567 215.473 332.173 218.544C330.51 222.18 319.042 232.026 317.51 241.962Z" fill="black"/>
<path d="M315.627 241.39C315.704 241.381 315.775 241.342 315.824 241.281C315.874 241.221 315.897 241.143 315.889 241.065C314.261 225.306 328.012 213.189 328.157 213.072C328.21 213.016 328.239 212.942 328.239 212.865C328.239 212.788 328.21 212.714 328.157 212.658C328.13 212.63 328.098 212.609 328.062 212.594C328.027 212.579 327.989 212.571 327.95 212.571C327.912 212.571 327.873 212.579 327.838 212.594C327.802 212.609 327.77 212.63 327.743 212.658C327.598 212.782 313.626 225.078 315.275 241.155C315.292 241.232 315.338 241.3 315.403 241.344C315.469 241.387 315.549 241.404 315.627 241.39Z" fill="white"/>
<path d="M38.64 233.958L43.401 231.24C43.401 231.24 45.678 218.675 43.9737 207.869C41.5725 192.689 31.2294 187.439 27.4758 188.95C23.7222 190.461 22.839 194.96 29.6217 203.736C33.6237 208.911 38.7711 219.862 38.64 233.958Z" fill="#66A678"/>
<g opacity="0.15">
<path opacity="0.15" d="M38.64 233.958L43.401 231.24C43.401 231.24 45.678 218.675 43.9737 207.869C41.5725 192.689 31.2294 187.439 27.4758 188.95C23.7222 190.461 22.839 194.96 29.6217 203.736C33.6237 208.911 38.7711 219.862 38.64 233.958Z" fill="black"/>
</g>
<path d="M40.365 227.928H40.3167C40.273 227.922 40.231 227.907 40.193 227.885C40.155 227.863 40.1219 227.833 40.0955 227.797C40.0692 227.762 40.0501 227.722 40.0395 227.679C40.0289 227.636 40.027 227.592 40.0338 227.548C41.9934 213.327 36.2802 197.747 29.8494 191.468C29.8095 191.439 29.7763 191.402 29.7521 191.359C29.7278 191.316 29.7131 191.268 29.7089 191.219C29.7047 191.169 29.7112 191.12 29.7278 191.073C29.7444 191.027 29.7708 190.984 29.8053 190.949C29.8397 190.913 29.8813 190.886 29.9274 190.868C29.9734 190.85 30.0228 190.842 30.0721 190.845C30.1214 190.848 30.1696 190.861 30.2133 190.884C30.257 190.907 30.2953 190.939 30.3255 190.978C36.8667 197.34 42.6972 213.21 40.71 227.631C40.6983 227.714 40.6569 227.79 40.5934 227.844C40.5299 227.899 40.4488 227.929 40.365 227.928Z" fill="white"/>
<path d="M25.4472 241.583C24.6951 242.011 23.1495 241.072 22.5561 240.672C21.5383 239.97 20.7165 239.02 20.1687 237.912C19.557 236.661 19.3496 235.25 19.5753 233.876C19.6948 233.149 19.8654 232.432 20.0859 231.73L20.6862 229.66C20.9227 228.996 21.0259 228.293 20.9898 227.59C20.8104 226.161 19.5408 225.168 18.3954 224.305C17.1189 223.353 15.801 222.097 15.8079 220.379C15.8969 219.048 16.4289 217.785 17.319 216.791C18.1332 215.749 19.1061 214.832 19.8513 213.734C20.4354 212.964 20.7353 212.016 20.7 211.05C20.621 210.463 20.4238 209.897 20.1204 209.387C19.4224 208.326 18.8131 207.209 18.2988 206.048C17.8779 204.847 17.94 203.357 18.8784 202.494C19.296 202.182 19.7718 201.957 20.2777 201.831C20.7837 201.706 21.3097 201.682 21.8247 201.763C22.8045 201.878 23.7468 202.208 24.5847 202.729C27.3102 204.24 28.8627 207.469 31.7538 208.635C32.8985 208.992 34.0646 209.275 35.2452 209.484C35.8378 209.594 36.4007 209.827 36.8975 210.168C37.3944 210.509 37.814 210.951 38.1294 211.464C39.192 213.583 37.2255 216.191 37.9707 218.44C38.6607 220.427 40.5651 221.2 41.6484 222.987C42.0925 223.777 42.2715 224.689 42.159 225.589C42.0627 227.11 41.691 228.602 41.0619 229.991C40.3541 231.372 39.5446 232.698 38.64 233.958C38.5986 234.007 25.5645 241.5 25.4472 241.583Z" fill="#66A678"/>
<path d="M33.1683 237.47C33.123 237.469 33.0785 237.458 33.0373 237.439C32.9961 237.42 32.9591 237.393 32.9283 237.36C32.8976 237.326 32.8737 237.287 32.858 237.245C32.8424 237.202 32.8353 237.157 32.8371 237.112C33.396 223.657 27.0549 208.822 22.4457 204.475C22.3829 204.411 22.3477 204.326 22.3477 204.237C22.3477 204.147 22.3829 204.062 22.4457 203.999C22.5102 203.935 22.5969 203.9 22.6872 203.9C22.7775 203.9 22.8642 203.935 22.9287 203.999C27.6 208.38 34.0791 223.491 33.5064 237.146C33.5029 237.233 33.4657 237.316 33.4027 237.376C33.3396 237.437 33.2557 237.471 33.1683 237.47Z" fill="white"/>
<path d="M31.1535 221.566H31.05C27.8619 220.689 24.5884 220.159 21.2865 219.986C21.195 219.986 21.1073 219.949 21.0426 219.885C20.9779 219.82 20.9415 219.732 20.9415 219.641C20.9415 219.549 20.9779 219.462 21.0426 219.397C21.1073 219.332 21.195 219.296 21.2865 219.296C24.647 219.47 27.9785 220.01 31.2225 220.904C31.2651 220.916 31.3048 220.937 31.3393 220.965C31.3738 220.993 31.4025 221.028 31.4236 221.067C31.4448 221.106 31.458 221.149 31.4626 221.193C31.4672 221.237 31.4629 221.282 31.4502 221.324C31.4301 221.389 31.3912 221.447 31.3384 221.49C31.2856 221.533 31.2213 221.559 31.1535 221.566Z" fill="white"/>
<path d="M277.263 250.994L270.832 250.256L269.169 237.298L277.028 239.63L277.263 250.994Z" fill="#B16668"/>
<path d="M263.173 261.565C263.08 261.821 263.042 262.093 263.061 262.364C263.08 262.635 263.156 262.899 263.283 263.138C263.973 263.939 265.754 264.877 268.182 265.05C270.508 265.215 272.578 264.905 273.937 264.042C274.528 263.737 275.034 263.289 275.41 262.74C275.785 262.191 276.019 261.557 276.09 260.896C276.221 259.578 276.09 258.301 276.704 257.287C277.318 256.273 278.208 255.286 278.408 254.776C278.647 253.895 278.647 252.966 278.408 252.085L263.173 261.565Z" fill="#263238"/>
<path d="M269.528 250.028C269.507 250.528 269.417 251.023 269.259 251.498C268.903 252.52 268.426 253.495 267.837 254.403C267.548 254.885 267.226 255.346 266.871 255.783C266.181 256.618 265.298 257.308 264.553 258.108C263.762 258.863 263.256 259.867 263.118 260.951C263.021 262.773 265.919 263.394 267.444 263.663C269.089 263.95 270.777 263.865 272.384 263.414C273.229 263.195 273.991 262.736 274.581 262.093C275.171 261.451 275.563 260.652 275.71 259.792C275.8 259.281 275.765 258.764 275.828 258.26C276.028 257.097 276.514 256.002 277.242 255.072C277.665 254.536 278.028 253.955 278.325 253.34C278.801 252.216 278.422 250.946 278.118 249.828C277.856 248.855 277.539 247.758 277.194 247.834C277.194 248.338 277.194 248.407 276.856 248.745C276.517 249.083 276.386 249.828 275.903 250.208C276.057 249.787 276.171 249.353 276.242 248.911C276.272 248.733 276.235 248.551 276.138 248.4C275.978 248.257 275.787 248.153 275.579 248.096C274.861 247.856 274.122 247.688 273.371 247.593C272.346 247.475 271.312 247.475 270.287 247.593C270.073 247.631 269.88 247.743 269.742 247.91C269.618 248.094 269.55 248.31 269.549 248.531C269.514 248.793 269.542 249.545 269.528 250.028Z" fill="#455A64"/>
<path d="M267.589 254.789C268.279 254.279 270.715 254.272 271.543 254.362C272.387 254.434 273.199 254.719 273.902 255.19C274.006 255.263 274.131 255.298 274.258 255.288C274.384 255.278 274.502 255.223 274.592 255.134C274.645 255.083 274.685 255.02 274.711 254.951C274.737 254.882 274.748 254.809 274.742 254.735C274.737 254.662 274.716 254.591 274.681 254.526C274.645 254.462 274.596 254.405 274.537 254.362C273.764 253.791 272.846 253.449 271.888 253.375C270.692 253.287 269.491 253.357 268.313 253.582C268.313 253.582 267.389 254.182 267.589 254.789Z" fill="#F5F5F5"/>
<path d="M266.029 256.68C266.885 256.176 269.48 256.245 270.314 256.335C271.142 256.42 271.932 256.722 272.605 257.211C272.709 257.283 272.834 257.317 272.96 257.307C273.086 257.297 273.204 257.244 273.295 257.156C273.347 257.104 273.388 257.042 273.414 256.973C273.44 256.904 273.45 256.83 273.445 256.757C273.44 256.684 273.419 256.612 273.383 256.548C273.348 256.483 273.299 256.427 273.24 256.383C272.108 255.797 270.873 255.436 269.604 255.321C267.534 255.176 267.03 255.59 267.03 255.59C266.793 255.685 266.579 255.833 266.406 256.022C266.233 256.21 266.104 256.435 266.029 256.68Z" fill="#F5F5F5"/>
<path d="M272.702 251.422C271.534 251.289 270.353 251.361 269.21 251.636C268.852 251.836 268.61 252.409 268.845 252.554C269.887 252.273 270.969 252.165 272.046 252.236C272.811 252.313 273.558 252.518 274.254 252.844C274.434 252.926 274.641 253.03 274.82 253.133C274.878 253.17 274.943 253.194 275.01 253.203C275.078 253.213 275.147 253.207 275.212 253.188C275.278 253.168 275.338 253.135 275.39 253.089C275.441 253.044 275.482 252.989 275.51 252.926C275.559 252.825 275.569 252.708 275.537 252.6C275.505 252.491 275.434 252.399 275.338 252.34C274.535 251.849 273.636 251.536 272.702 251.422Z" fill="#F5F5F5"/>
<path d="M253.285 245.102L247.172 243.398V231.04L254.755 231.371L253.285 245.102Z" fill="#B16668"/>
<path d="M234.255 251.719C234.083 252.252 234.115 252.83 234.345 253.34C234.572 253.81 237.05 255.21 240.389 254.983C242.863 254.805 245.245 253.972 247.289 252.568C248.559 251.726 249.884 251.567 251.54 251.477C253.196 251.388 255.362 250.553 255.728 249.78C255.914 249.088 255.895 248.357 255.673 247.676L234.255 251.719Z" fill="#263238"/>
<path d="M247.71 241.3L247.448 241.245C247.303 241.21 247.151 241.21 247.006 241.245C246.846 241.297 246.703 241.393 246.592 241.521C246.266 241.941 245.982 242.391 245.743 242.866C245.053 244.005 243.57 244.936 241.969 245.812C240.879 246.399 239.809 246.854 238.685 247.358C237.56 247.862 236.008 248.193 235.111 248.8C233.8 249.683 233.627 251.898 235.111 252.775C236.394 253.534 239.789 254.355 243.342 253.347C245.274 252.795 247.427 250.732 249.966 250.532C251.581 250.401 254.638 249.953 255.679 248.724C256.066 248.179 255.548 246.454 255.127 244.964C254.665 243.335 254.23 240.824 253.692 240.941C253.697 241.058 253.674 241.173 253.624 241.279C253.575 241.385 253.502 241.477 253.409 241.548C253.209 241.755 252.94 241.886 252.719 242.073C252.343 242.443 252.038 242.881 251.822 243.363C251.735 243.578 251.573 243.754 251.367 243.86C251.091 243.956 250.891 243.791 250.677 243.68C250.374 243.541 250.031 243.517 249.711 243.611C249.744 243.288 249.802 242.967 249.883 242.652C249.914 242.553 249.914 242.448 249.883 242.349C249.844 242.249 249.771 242.165 249.676 242.114C249.085 241.708 248.415 241.431 247.71 241.3Z" fill="#455A64"/>
<path d="M243.501 244.909C243.616 244.685 243.786 244.495 243.995 244.355C244.204 244.215 244.444 244.13 244.695 244.108C245.426 243.97 246.723 244.515 247.531 245.178C247.608 245.239 247.668 245.319 247.707 245.409C247.746 245.5 247.762 245.598 247.754 245.697C247.746 245.795 247.714 245.889 247.66 245.972C247.607 246.055 247.534 246.123 247.448 246.171C247.339 246.233 247.214 246.258 247.091 246.245C246.967 246.231 246.85 246.179 246.758 246.095C245.867 245.292 244.699 244.867 243.501 244.909Z" fill="#F5F5F5"/>
<path d="M241.217 246.185C241.377 245.959 241.589 245.774 241.835 245.647C242.082 245.52 242.355 245.454 242.632 245.454C243.766 245.503 244.856 245.912 245.744 246.62C245.816 246.68 245.873 246.757 245.91 246.845C245.946 246.932 245.961 247.027 245.953 247.121C245.944 247.215 245.914 247.306 245.863 247.386C245.812 247.465 245.743 247.532 245.661 247.579C245.553 247.644 245.428 247.671 245.303 247.657C245.178 247.644 245.062 247.589 244.971 247.503C244.483 247.018 243.892 246.648 243.243 246.42C242.594 246.192 241.901 246.111 241.217 246.185Z" fill="#F5F5F5"/>
<path d="M238.74 247.331C238.922 247.122 239.147 246.956 239.4 246.843C239.652 246.73 239.926 246.672 240.203 246.675C241.295 246.742 242.338 247.153 243.184 247.848C243.256 247.909 243.313 247.987 243.349 248.075C243.386 248.163 243.401 248.258 243.392 248.352C243.384 248.447 243.354 248.538 243.303 248.619C243.252 248.699 243.183 248.766 243.101 248.814C242.993 248.879 242.868 248.906 242.743 248.893C242.618 248.879 242.502 248.825 242.411 248.738C241.95 248.235 241.378 247.847 240.741 247.603C240.104 247.358 239.419 247.265 238.74 247.331Z" fill="#F5F5F5"/>
<path d="M275.855 164.475C276.276 177.22 276.304 204.82 276.304 204.82C276.435 206.407 276.573 209.222 276.69 214.935C276.863 223.215 277.263 243.66 277.263 243.66C277.263 243.66 273.309 245.516 269.673 244.005C269.673 244.005 264.622 215.259 263.587 207.062C262.683 199.907 260.951 183.126 260.951 183.126L258.564 204.426C258.564 204.426 258.564 209.946 258.239 214.818C257.97 218.613 254.286 238.16 254.286 238.16C251.879 238.8 249.338 238.716 246.979 237.919C246.979 237.919 246.647 207.911 246.578 204.426C246.503 200.466 247.524 157.644 247.524 157.644L275.855 164.475Z" fill="#455A64"/>
<path d="M260.965 183.126L260.054 175.902C257.113 175.15 254.331 173.874 251.843 172.134C251.843 172.134 253.596 174.48 258.743 176.964L259.902 183.519L258.591 204.426L260.965 183.126Z" fill="#37474F"/>
<path d="M247.199 128.713C245.336 131.155 235.752 144.307 235.752 144.307L226.9 137.448C224.83 135.826 224.216 133.701 222.918 132.232C221.621 130.762 220.2 130.41 218.744 129.182C217.288 127.954 216.729 127.022 216.232 128.071C215.735 129.12 217.343 130.948 217.612 131.39C217.881 131.831 219.544 132.887 217.35 132.77C215.156 132.652 210.933 130.148 209.912 129.685C208.891 129.223 208.863 130.486 209.346 131.314C209.829 132.142 209.588 134.446 210.153 135.93C210.719 137.413 211.713 138.324 213.734 139.325C215.618 140.263 220.2 140.85 221.69 141.788C224.961 145.141 231.129 151.4 232.689 152.559C234.835 154.153 236.912 155.623 240.196 152.462C243.48 149.302 252.995 136.903 252.995 136.903L254.962 125.111C251.733 124.993 249.449 125.766 247.199 128.713Z" fill="#B16668"/>
<path d="M235.752 144.307C236.967 145.204 238.229 147.218 238.347 148.122C238.332 147.266 238.141 146.422 237.785 145.643C237.429 144.864 236.915 144.167 236.277 143.596L235.752 144.307Z" fill="#9A4A4D"/>
<path d="M255.721 124.821C255.721 124.821 251.167 124.766 249.166 126.167C247.165 127.567 245.681 129.617 242.431 134.343C239.582 138.483 238.202 140.47 238.202 140.47C240.067 143.23 242.783 145.304 245.937 146.377L254.438 135.847L255.721 124.821Z" fill="#37474F"/>
<path d="M264.532 124.6C267.113 124.849 270.742 124.876 273.295 125.138C275.069 125.87 278.491 128.851 278.236 130.976C277.283 138.918 275.358 151.938 275.358 151.938L275.993 165.738C272.44 169.285 255.811 170.672 247.241 165C247.241 165 247.517 140.215 248.11 136.02C249.166 128.506 250.091 125.718 253.968 125.056C257.846 124.393 264.532 124.6 264.532 124.6Z" fill="#66A678"/>
<path d="M279.146 128.913C281.009 131.355 290.6 144.507 290.6 144.507L299.46 137.648C301.53 136.02 302.144 133.894 303.441 132.432C304.739 130.969 306.16 130.61 307.616 129.382C309.072 128.154 309.631 127.222 310.127 128.264C310.624 129.306 309.017 131.148 308.747 131.59C308.478 132.032 306.815 133.087 309.01 132.97C311.204 132.853 315.42 130.341 316.448 129.879C317.476 129.416 317.49 130.679 317.014 131.507C316.538 132.335 316.765 134.647 316.206 136.13C315.647 137.614 314.647 138.518 312.625 139.525C310.742 140.463 306.16 141.05 304.67 141.988C301.399 145.335 295.23 151.6 293.671 152.752C291.525 154.346 289.448 155.816 286.164 152.663C282.879 149.509 275.372 139.691 275.372 139.691L271.398 125.311C274.62 125.194 276.904 125.966 279.146 128.913Z" fill="#B16668"/>
<path d="M290.6 144.507C289.386 145.404 288.123 147.418 288.006 148.322C288.019 147.465 288.21 146.619 288.566 145.839C288.923 145.059 289.437 144.361 290.076 143.789L290.6 144.507Z" fill="#9A4A4D"/>
<path d="M270.942 124.966C270.942 124.966 275.034 124.711 277.187 126.346C279.126 127.836 280.637 129.796 283.921 134.522C286.771 138.662 288.151 140.65 288.151 140.65C286.281 143.408 283.564 145.482 280.409 146.556L274.62 139.421C271.605 135.599 268.617 129.782 270.942 124.966Z" fill="#37474F"/>
<path d="M265.174 105.915C265.188 107.498 264.731 109.049 263.863 110.373C262.995 111.697 261.754 112.733 260.297 113.352C258.839 113.97 257.232 114.143 255.676 113.847C254.121 113.552 252.688 112.802 251.56 111.692C250.431 110.582 249.656 109.163 249.334 107.613C249.012 106.063 249.156 104.452 249.749 102.985C250.342 101.517 251.357 100.258 252.666 99.3673C253.975 98.4765 255.518 97.9937 257.101 97.98C258.152 97.9709 259.195 98.1689 260.169 98.5628C261.144 98.9566 262.031 99.5386 262.781 100.275C263.531 101.012 264.128 101.89 264.538 102.857C264.949 103.825 265.165 104.864 265.174 105.915Z" fill="#263238"/>
<path d="M271.06 111.559C271.06 111.559 269.811 117.666 269.3 118.666C268.96 119.288 268.395 119.754 267.72 119.97L267.768 115.679L271.06 111.559Z" fill="#263238"/>
<path d="M269.355 102.845C269.808 102.786 270.268 102.833 270.699 102.98C271.131 103.127 271.523 103.371 271.846 103.693C272.923 104.776 272.357 108.199 271.06 111.559L268.617 111.863L269.355 102.845Z" fill="#263238"/>
<path d="M267.886 111.87C268.376 112.16 269.066 111.18 269.666 110.573C270.266 109.965 272.226 109.055 273.233 111.118C274.241 113.181 272.405 116.03 270.86 116.527C268.189 117.397 267.768 115.679 267.768 115.679L267.658 125.628C264.374 129.927 255.134 129.644 258.943 125.159V122.22C257.754 122.419 256.546 122.491 255.341 122.434C253.368 122.151 252.119 120.605 251.498 118.48C250.511 115.071 250.118 112.311 250.877 105.57C251.705 98.187 260.282 98.0352 264.939 100.913C269.597 103.79 267.886 111.87 267.886 111.87Z" fill="#B16668"/>
<path d="M267.893 112.691C268.134 112.691 269.059 111.131 269.666 110.573C270.501 109.793 269.355 102.845 269.355 102.845C269.642 102.228 269.736 101.539 269.625 100.868C269.514 100.198 269.204 99.5757 268.734 99.084C267.568 97.8213 265.94 96.2826 260.696 96.945C256.949 97.4211 252.885 98.6286 249.58 97.0416C249.286 98.1176 249.319 99.2568 249.675 100.314C250.032 101.371 250.695 102.298 251.581 102.976C251.581 102.976 252.782 103.735 255.921 104.087C258.816 104.277 261.722 104.196 264.601 103.845C265.512 103.714 265.712 104.59 266.223 106.998C266.671 109.103 267.065 112.684 267.893 112.691Z" fill="#263238"/>
<path d="M269.355 103.383L272.302 101.768C272.206 101.569 272.071 101.391 271.904 101.246C271.738 101.1 271.543 100.99 271.333 100.922C271.122 100.855 270.9 100.83 270.68 100.851C270.46 100.872 270.246 100.938 270.052 101.044C269.657 101.269 269.365 101.638 269.235 102.073C269.105 102.509 269.148 102.978 269.355 103.383Z" fill="#263238"/>
<path d="M258.923 122.22C258.923 122.22 263.311 121.295 264.836 120.467C265.735 119.989 266.468 119.251 266.94 118.349C266.718 119.248 266.316 120.092 265.76 120.833C264.65 122.282 258.936 123.386 258.936 123.386L258.923 122.22Z" fill="#9A4A4D"/>
<path d="M258.571 111.166C258.569 111.283 258.59 111.4 258.634 111.509C258.677 111.618 258.742 111.718 258.824 111.802C258.906 111.886 259.004 111.953 259.112 111.999C259.22 112.045 259.336 112.069 259.454 112.07C259.637 112.077 259.818 112.028 259.974 111.931C260.13 111.834 260.253 111.692 260.327 111.525C260.402 111.357 260.424 111.171 260.391 110.99C260.359 110.809 260.273 110.643 260.145 110.511C260.016 110.38 259.852 110.29 259.672 110.254C259.492 110.217 259.305 110.235 259.136 110.305C258.966 110.376 258.822 110.496 258.721 110.649C258.62 110.802 258.568 110.982 258.571 111.166Z" fill="#263238"/>
<path d="M261.186 108.137L259.226 107.247C259.112 107.515 259.106 107.816 259.209 108.089C259.312 108.361 259.516 108.584 259.778 108.71C259.908 108.767 260.048 108.798 260.19 108.8C260.331 108.802 260.472 108.776 260.604 108.722C260.735 108.669 260.854 108.589 260.954 108.489C261.054 108.388 261.133 108.268 261.186 108.137Z" fill="#263238"/>
<path d="M252.802 107.053L251.098 108.392C251.178 108.508 251.282 108.606 251.402 108.681C251.522 108.755 251.657 108.804 251.797 108.824C251.936 108.844 252.079 108.835 252.215 108.797C252.351 108.76 252.478 108.695 252.588 108.606C252.815 108.423 252.963 108.16 253.002 107.872C253.042 107.584 252.971 107.291 252.802 107.053Z" fill="#263238"/>
<path d="M251.774 110.952C251.782 111.117 251.839 111.276 251.936 111.409C252.034 111.542 252.168 111.643 252.323 111.7C252.478 111.757 252.646 111.768 252.807 111.73C252.967 111.693 253.113 111.609 253.227 111.489C253.34 111.369 253.416 111.218 253.444 111.056C253.473 110.893 253.453 110.726 253.387 110.575C253.321 110.424 253.212 110.295 253.074 110.205C252.936 110.115 252.774 110.068 252.609 110.069C252.496 110.071 252.385 110.097 252.282 110.142C252.178 110.188 252.085 110.254 252.008 110.336C251.93 110.419 251.869 110.515 251.829 110.621C251.789 110.727 251.77 110.839 251.774 110.952Z" fill="#263238"/>
<path d="M256.342 110.241L255.845 115.52L253.12 114.471L256.342 110.241Z" fill="#9A4A4D"/>
<path d="M257.839 117.5C257.838 117.668 257.886 117.833 257.979 117.973C258.071 118.114 258.203 118.224 258.358 118.289C258.513 118.354 258.684 118.372 258.849 118.34C259.014 118.308 259.166 118.228 259.286 118.11C259.405 117.991 259.486 117.84 259.52 117.675C259.553 117.51 259.537 117.339 259.473 117.184C259.409 117.028 259.3 116.895 259.16 116.802C259.02 116.708 258.856 116.658 258.688 116.658C258.464 116.658 258.249 116.747 258.09 116.904C257.931 117.062 257.841 117.276 257.839 117.5Z" fill="#9A4A4D"/>
<path d="M279.381 61.2858C280.697 61.5788 281.965 62.055 283.148 62.7003C284.28 63.3095 285.294 64.1156 286.143 65.0808C286.96 66.0159 287.562 67.118 287.909 68.31C288.272 69.5736 288.301 70.9099 287.992 72.1878C287.788 73.2022 287.384 74.1661 286.805 75.0237C286.285 75.7616 285.66 76.4194 284.949 76.9764C284.254 77.516 283.513 77.994 282.734 78.4047L280.54 79.5639C279.878 79.9096 279.25 80.3161 278.663 80.7783C278.134 81.1803 277.727 81.723 277.49 82.3446C277.371 82.6218 277.178 82.8606 276.932 83.0346C276.813 83.125 276.676 83.1874 276.53 83.2173C276.385 83.2472 276.234 83.2437 276.09 83.2071L272.861 82.5171C272.706 82.4844 272.559 82.4212 272.428 82.3312C272.298 82.2412 272.187 82.1261 272.102 81.9927C272.011 81.8678 271.952 81.7233 271.928 81.5711C271.904 81.4188 271.916 81.263 271.964 81.1164C272.232 80.1127 272.702 79.1738 273.344 78.3564C273.922 77.635 274.589 76.9904 275.331 76.4382C276.047 75.9143 276.806 75.4526 277.601 75.0582C278.387 74.6649 279.119 74.2854 279.795 73.9128C280.413 73.5862 280.994 73.1928 281.527 72.7398C281.992 72.3486 282.314 71.815 282.445 71.2218C282.564 70.7037 282.556 70.1645 282.421 69.6502C282.287 69.1359 282.03 68.6619 281.672 68.2686C280.78 67.2936 279.587 66.6451 278.284 66.4263C275.874 65.8881 273.836 66.7 272.171 68.862C272.011 69.0987 271.807 69.3025 271.57 69.4623C271.442 69.5275 271.302 69.5666 271.159 69.5773C271.016 69.5879 270.872 69.57 270.735 69.5244L267.285 68.7585C267.164 68.7351 267.048 68.6876 266.945 68.6189C266.842 68.5502 266.753 68.4616 266.685 68.3583C266.61 68.2526 266.559 68.1316 266.537 68.0039C266.514 67.8762 266.52 67.7451 266.554 67.62C266.844 66.5595 267.389 65.586 268.141 64.7841C268.985 63.8522 269.987 63.0767 271.101 62.4933C272.322 61.8525 273.638 61.4143 275 61.1961C276.452 60.9406 277.94 60.971 279.381 61.2858ZM275.738 85.8084C275.889 85.8408 276.032 85.904 276.158 85.9943C276.284 86.0845 276.39 86.1998 276.469 86.3328C276.554 86.4616 276.612 86.6063 276.639 86.7581C276.667 86.9099 276.663 87.0657 276.628 87.216L275.8 90.9558C275.731 91.2544 275.548 91.5142 275.29 91.6803C275.033 91.8465 274.72 91.9058 274.42 91.8459L270.763 91.0386C270.612 91.0063 270.47 90.9438 270.344 90.8548C270.218 90.7659 270.112 90.6524 270.032 90.5211C269.945 90.3928 269.887 90.2481 269.86 90.0961C269.832 89.9441 269.837 89.7881 269.873 89.6379L270.701 85.8912C270.77 85.5927 270.953 85.3328 271.211 85.1667C271.468 85.0006 271.78 84.9412 272.081 85.0011L275.738 85.8084Z" fill="#66A678"/>
<path d="M290.228 96.4689C291.14 96.3185 292.07 96.2999 292.988 96.4137C293.87 96.5139 294.728 96.7709 295.52 97.1727C296.277 97.5598 296.94 98.1058 297.466 98.7735C298.023 99.4891 298.382 100.339 298.508 101.237C298.651 101.936 298.651 102.656 298.508 103.355C298.364 103.963 298.132 104.547 297.818 105.087C297.51 105.608 297.16 106.102 296.769 106.564L295.658 107.875C295.324 108.267 295.024 108.687 294.761 109.13C294.527 109.525 294.408 109.976 294.416 110.434C294.415 110.65 294.353 110.86 294.237 111.042C294.184 111.128 294.113 111.203 294.028 111.259C293.943 111.315 293.847 111.351 293.747 111.366L291.491 111.739C291.273 111.773 291.05 111.721 290.87 111.594C290.781 111.536 290.707 111.459 290.653 111.368C290.599 111.277 290.567 111.175 290.559 111.069C290.465 110.362 290.519 109.643 290.718 108.958C290.897 108.343 291.159 107.756 291.497 107.212C291.82 106.692 292.188 106.2 292.595 105.743C293.002 105.287 293.367 104.859 293.712 104.445C294.023 104.077 294.294 103.677 294.52 103.252C294.717 102.882 294.788 102.458 294.72 102.044C294.664 101.681 294.52 101.336 294.301 101.041C294.082 100.745 293.795 100.507 293.464 100.347C292.646 99.9473 291.717 99.8354 290.828 100.029C290.024 100.148 289.275 100.512 288.685 101.071C288.095 101.63 287.692 102.358 287.53 103.155C287.486 103.35 287.407 103.534 287.295 103.7C287.162 103.847 286.976 103.936 286.778 103.948L284.377 104.342C284.206 104.37 284.031 104.333 283.887 104.238C283.811 104.189 283.747 104.125 283.7 104.048C283.652 103.972 283.622 103.886 283.611 103.797C283.527 103.043 283.629 102.28 283.907 101.575C284.207 100.759 284.651 100.004 285.218 99.3462C285.837 98.6239 286.569 98.0065 287.385 97.5177C288.256 96.9869 289.221 96.6306 290.228 96.4689ZM294.168 113.16C294.274 113.142 294.382 113.146 294.486 113.171C294.59 113.196 294.689 113.241 294.775 113.305C294.861 113.366 294.934 113.444 294.99 113.534C295.046 113.624 295.083 113.725 295.099 113.829L295.527 116.437C295.545 116.543 295.541 116.651 295.516 116.756C295.491 116.86 295.446 116.958 295.382 117.045C295.322 117.132 295.244 117.206 295.154 117.261C295.063 117.317 294.963 117.354 294.858 117.369L292.305 117.79C292.2 117.807 292.093 117.803 291.99 117.778C291.887 117.753 291.79 117.708 291.704 117.645C291.616 117.585 291.541 117.508 291.484 117.417C291.427 117.327 291.389 117.226 291.373 117.121L290.945 114.505C290.914 114.291 290.969 114.072 291.098 113.897C291.227 113.723 291.421 113.606 291.635 113.574L294.168 113.16Z" fill="#66A678"/>
<g opacity="0.2">
<path opacity="0.2" d="M290.228 96.4689C291.14 96.3185 292.07 96.2999 292.988 96.4137C293.87 96.5139 294.728 96.7709 295.52 97.1727C296.277 97.5598 296.94 98.1058 297.466 98.7735C298.023 99.4891 298.382 100.339 298.508 101.237C298.651 101.936 298.651 102.656 298.508 103.355C298.364 103.963 298.132 104.547 297.818 105.087C297.51 105.608 297.16 106.102 296.769 106.564L295.658 107.875C295.324 108.267 295.024 108.687 294.761 109.13C294.527 109.525 294.408 109.976 294.416 110.434C294.415 110.65 294.353 110.86 294.237 111.042C294.184 111.128 294.113 111.203 294.028 111.259C293.943 111.315 293.847 111.351 293.747 111.366L291.491 111.739C291.273 111.773 291.05 111.721 290.87 111.594C290.781 111.536 290.707 111.459 290.653 111.368C290.599 111.277 290.567 111.175 290.559 111.069C290.465 110.362 290.519 109.643 290.718 108.958C290.897 108.343 291.159 107.756 291.497 107.212C291.82 106.692 292.188 106.2 292.595 105.743C293.002 105.287 293.367 104.859 293.712 104.445C294.023 104.077 294.294 103.677 294.52 103.252C294.717 102.882 294.788 102.458 294.72 102.044C294.664 101.681 294.52 101.336 294.301 101.041C294.082 100.745 293.795 100.507 293.464 100.347C292.646 99.9473 291.717 99.8354 290.828 100.029C290.024 100.148 289.275 100.512 288.685 101.071C288.095 101.63 287.692 102.358 287.53 103.155C287.486 103.35 287.407 103.534 287.295 103.7C287.162 103.847 286.976 103.936 286.778 103.948L284.377 104.342C284.206 104.37 284.031 104.333 283.887 104.238C283.811 104.189 283.747 104.125 283.7 104.048C283.652 103.972 283.622 103.886 283.611 103.797C283.527 103.043 283.629 102.28 283.907 101.575C284.207 100.759 284.651 100.004 285.218 99.3462C285.837 98.6239 286.569 98.0065 287.385 97.5177C288.256 96.9869 289.221 96.6306 290.228 96.4689ZM294.168 113.16C294.274 113.142 294.382 113.146 294.486 113.171C294.59 113.196 294.689 113.241 294.775 113.305C294.861 113.366 294.934 113.444 294.99 113.534C295.046 113.624 295.083 113.725 295.099 113.829L295.527 116.437C295.545 116.543 295.541 116.651 295.516 116.756C295.491 116.86 295.446 116.958 295.382 117.045C295.322 117.132 295.244 117.206 295.154 117.261C295.063 117.317 294.963 117.354 294.858 117.369L292.305 117.79C292.2 117.807 292.093 117.803 291.99 117.778C291.887 117.753 291.79 117.708 291.704 117.645C291.616 117.585 291.541 117.508 291.484 117.417C291.427 117.327 291.389 117.226 291.373 117.121L290.945 114.505C290.914 114.291 290.969 114.072 291.098 113.897C291.227 113.723 291.421 113.606 291.635 113.574L294.168 113.16Z" fill="black"/>
</g>
<path d="M313.757 103.873C313.962 104.022 314.1 104.246 314.143 104.496C314.185 104.746 314.129 105.002 313.985 105.211L312.163 107.764C312.014 107.969 311.79 108.108 311.54 108.15C311.29 108.193 311.033 108.136 310.824 107.992L308.327 106.219C308.224 106.147 308.136 106.054 308.07 105.948C308.003 105.841 307.959 105.722 307.94 105.598C307.904 105.356 307.961 105.109 308.099 104.908L309.92 102.348C310.068 102.142 310.292 102.003 310.541 101.961C310.784 101.925 311.032 101.984 311.231 102.127L313.757 103.873ZM324.3 86.5605C325.201 87.1959 326.005 87.9582 326.687 88.8237C327.347 89.6473 327.854 90.5819 328.185 91.5837C328.501 92.5411 328.607 93.5555 328.495 94.5576C328.366 95.6247 327.962 96.6399 327.322 97.5039C326.846 98.2025 326.236 98.8004 325.528 99.2634C324.899 99.6541 324.215 99.9494 323.5 100.14C322.806 100.325 322.097 100.45 321.381 100.512L319.353 100.685C318.747 100.74 318.147 100.847 317.559 101.002C317.033 101.141 316.555 101.423 316.179 101.816C315.998 101.992 315.774 102.118 315.53 102.182C315.412 102.21 315.288 102.212 315.169 102.187C315.05 102.162 314.937 102.111 314.84 102.037L312.632 100.471C312.421 100.319 312.278 100.092 312.232 99.8361C312.206 99.7156 312.207 99.5906 312.237 99.4709C312.267 99.3512 312.324 99.24 312.404 99.1461C312.918 98.4728 313.564 97.9116 314.302 97.497C314.966 97.1327 315.676 96.8589 316.413 96.6828C317.12 96.5119 317.841 96.4011 318.566 96.3516C319.256 96.3102 319.946 96.255 320.581 96.1929C321.151 96.1437 321.713 96.0303 322.258 95.8548C322.732 95.7103 323.145 95.4117 323.431 95.0061C323.687 94.6547 323.854 94.246 323.916 93.8155C323.979 93.385 323.935 92.9457 323.789 92.5359C323.43 91.519 322.74 90.6518 321.83 90.0726C320.188 88.8996 318.394 88.8605 316.448 89.9553C316.252 90.0807 316.034 90.1695 315.806 90.2175C315.688 90.2259 315.569 90.2107 315.456 90.1728C315.344 90.1349 315.24 90.0751 315.151 89.9967L312.805 88.3269C312.634 88.2107 312.515 88.0325 312.473 87.8301C312.453 87.7266 312.456 87.62 312.481 87.5176C312.506 87.4151 312.553 87.3193 312.618 87.2367C313.165 86.5309 313.875 85.9695 314.688 85.6014C315.622 85.1697 316.624 84.9058 317.648 84.8217C318.771 84.7302 319.901 84.8187 320.995 85.0839C322.184 85.3521 323.307 85.8541 324.3 86.5605Z" fill="#66A678"/>
<g opacity="0.6">
<path opacity="0.6" d="M313.757 103.873C313.962 104.022 314.1 104.246 314.143 104.496C314.185 104.746 314.129 105.002 313.985 105.211L312.163 107.764C312.014 107.969 311.79 108.108 311.54 108.15C311.29 108.193 311.033 108.136 310.824 107.992L308.327 106.219C308.224 106.147 308.136 106.054 308.07 105.948C308.003 105.841 307.959 105.722 307.94 105.598C307.904 105.356 307.961 105.109 308.099 104.908L309.92 102.348C310.068 102.142 310.292 102.003 310.541 101.961C310.784 101.925 311.032 101.984 311.231 102.127L313.757 103.873ZM324.3 86.5605C325.201 87.1959 326.005 87.9582 326.687 88.8237C327.347 89.6473 327.854 90.5819 328.185 91.5837C328.501 92.5411 328.607 93.5555 328.495 94.5576C328.366 95.6247 327.962 96.6399 327.322 97.5039C326.846 98.2025 326.236 98.8004 325.528 99.2634C324.899 99.6541 324.215 99.9494 323.5 100.14C322.806 100.325 322.097 100.45 321.381 100.512L319.353 100.685C318.747 100.74 318.147 100.847 317.559 101.002C317.033 101.141 316.555 101.423 316.179 101.816C315.998 101.992 315.774 102.118 315.53 102.182C315.412 102.21 315.288 102.212 315.169 102.187C315.05 102.162 314.937 102.111 314.84 102.037L312.632 100.471C312.421 100.319 312.278 100.092 312.232 99.8361C312.206 99.7156 312.207 99.5906 312.237 99.4709C312.267 99.3512 312.324 99.24 312.404 99.1461C312.918 98.4728 313.564 97.9116 314.302 97.497C314.966 97.1327 315.676 96.8589 316.413 96.6828C317.12 96.5119 317.841 96.4011 318.566 96.3516C319.256 96.3102 319.946 96.255 320.581 96.1929C321.151 96.1437 321.713 96.0303 322.258 95.8548C322.732 95.7103 323.145 95.4117 323.431 95.0061C323.687 94.6547 323.854 94.246 323.916 93.8155C323.979 93.385 323.935 92.9457 323.789 92.5359C323.43 91.519 322.74 90.6518 321.83 90.0726C320.188 88.8996 318.394 88.8605 316.448 89.9553C316.252 90.0807 316.034 90.1695 315.806 90.2175C315.688 90.2259 315.569 90.2107 315.456 90.1728C315.344 90.1349 315.24 90.0751 315.151 89.9967L312.805 88.3269C312.634 88.2107 312.515 88.0325 312.473 87.8301C312.453 87.7266 312.456 87.62 312.481 87.5176C312.506 87.4151 312.553 87.3193 312.618 87.2367C313.165 86.5309 313.875 85.9695 314.688 85.6014C315.622 85.1697 316.624 84.9058 317.648 84.8217C318.771 84.7302 319.901 84.8187 320.995 85.0839C322.184 85.3521 323.307 85.8541 324.3 86.5605Z" fill="white"/>
</g>
<path d="M91.4112 240.479C91.3422 238.409 92.8326 218.178 92.8326 218.178L82.9794 225.326C85.0011 237.388 85.4358 240.237 85.4703 242.211C85.4286 242.375 85.41 242.545 85.4151 242.714C85.4151 245.06 88.0716 246.323 90.1347 247.889C91.8882 249.261 93.7557 250.479 95.7168 251.533C97.2141 252.285 100.264 252.354 100.636 251.388C98.1249 249.469 94.4748 246.599 92.4738 244.412C91.5216 243.363 91.4871 242.535 91.4112 240.479Z" fill="#FFA8A7"/>
<path d="M104.921 253.92C105.033 254.242 105.053 254.589 104.979 254.922C104.904 255.254 104.739 255.56 104.5 255.804C102.691 257.109 100.439 257.644 98.2353 257.294C95.1027 256.887 93.4053 255.997 92.1564 254.948C90.9075 253.899 89.148 252.423 87.7266 252.112C86.5966 251.897 85.5217 251.456 84.5664 250.815C84.1455 250.408 84.2007 248.6 84.2007 248.6L104.921 253.92Z" fill="#263238"/>
<path d="M85.4496 241.638C85.3336 241.642 85.2224 241.686 85.1355 241.762C85.0485 241.839 84.9912 241.944 84.9735 242.059C84.8769 242.556 84.7734 244.005 84.5664 244.819C84.2461 246.258 84.1438 247.738 84.2628 249.207C84.4353 250.139 86.5743 250.78 87.9474 251.277C89.5622 251.98 91.0605 252.925 92.391 254.079C94.3111 255.515 96.6029 256.37 98.9943 256.542C101.409 256.542 104.128 255.742 104.756 254.624C105.522 253.244 104.921 252.436 101.34 250.774C100.65 250.463 98.2836 249.049 97.4694 248.538C95.2752 247.158 93.1017 245.233 92.0874 242.79C92.0056 242.492 91.8258 242.229 91.5768 242.045C91.3595 241.951 91.1184 241.927 90.8868 241.976C90.2887 242.063 89.7072 242.24 89.1618 242.501C88.6857 242.728 88.0026 242.997 88.0095 243.611C88.0242 243.824 88.0707 244.033 88.1475 244.232C88.1889 244.364 88.2234 244.529 88.1475 244.605C88.0716 244.681 87.906 244.605 87.8094 244.508C87.4583 244.149 87.1375 243.761 86.8503 243.349C86.6807 243.138 86.4886 242.946 86.2776 242.777C86.0665 242.657 85.8636 242.523 85.6704 242.376C85.4082 242.19 85.4634 241.928 85.4496 241.638Z" fill="#455A64"/>
<path d="M92.391 254.113C91.7631 253.603 91.1007 253.099 90.4383 252.657C90.4383 252.657 94.6473 255.217 96.3447 254.037C96.6597 253.837 96.8901 253.529 96.992 253.17C97.0938 252.811 97.0599 252.427 96.8967 252.092C96.8967 251.802 99.5739 250.553 100.636 250.429C100.933 250.594 101.182 250.725 101.326 250.794C104.908 252.457 105.508 253.258 104.742 254.645C104.114 255.762 102.148 256.639 99.0288 256.639C97.0002 256.68 93.84 255.3 92.391 254.113Z" fill="#37474F"/>
<path d="M96.6 251.257C98.8287 252.147 97.8765 252.561 97.2555 252.637C96.6345 252.713 92.8878 250.567 90.597 248.731C88.3062 246.896 86.7123 244.778 85.8291 244.088C85.4979 243.832 85.1391 243.515 84.8217 243.218C84.8838 242.728 84.9321 242.28 84.9735 242.045C84.9912 241.93 85.0485 241.826 85.1355 241.749C85.2224 241.672 85.3336 241.628 85.4496 241.624C85.4496 241.914 85.4082 242.183 85.629 242.397C85.8223 242.544 86.0251 242.678 86.2362 242.797C86.4473 242.967 86.6393 243.159 86.8089 243.37C87.0961 243.782 87.4169 244.17 87.768 244.529C90.2509 247.32 93.25 249.604 96.6 251.257Z" fill="#263238"/>
<path d="M97.0968 252.326C97.0458 252.324 96.997 252.305 96.9588 252.271C96.9364 252.253 96.9176 252.232 96.9037 252.207C96.8898 252.182 96.881 252.155 96.8778 252.126C96.8746 252.098 96.877 252.069 96.885 252.042C96.893 252.015 96.9064 251.989 96.9243 251.967C97.4491 251.422 98.0847 250.996 98.7881 250.718C99.4916 250.439 100.247 250.315 101.002 250.353C101.061 250.36 101.116 250.39 101.153 250.436C101.19 250.482 101.208 250.542 101.202 250.601C101.195 250.659 101.166 250.711 101.121 250.747C101.076 250.783 101.018 250.8 100.961 250.794C100.279 250.766 99.5979 250.88 98.9623 251.13C98.3267 251.379 97.7501 251.759 97.2693 252.243C97.2483 252.269 97.222 252.289 97.1922 252.304C97.1624 252.318 97.1298 252.326 97.0968 252.326Z" fill="#F5F5F5"/>
<path d="M95.1579 251.16C95.1053 251.162 95.0537 251.145 95.013 251.112C94.9737 251.07 94.9519 251.014 94.9519 250.956C94.9519 250.899 94.9737 250.843 95.013 250.801C95.539 250.258 96.1749 249.834 96.8782 249.557C97.5815 249.279 98.3359 249.156 99.0909 249.194C99.1495 249.2 99.2031 249.229 99.24 249.275C99.2768 249.321 99.294 249.38 99.2876 249.439C99.2811 249.497 99.2517 249.551 99.2058 249.588C99.1599 249.624 99.1012 249.642 99.0426 249.635C98.3602 249.605 97.6791 249.719 97.0432 249.968C96.4074 250.218 95.8309 250.598 95.3511 251.084C95.3276 251.112 95.2977 251.133 95.264 251.146C95.2303 251.159 95.1939 251.164 95.1579 251.16Z" fill="#F5F5F5"/>
<path d="M93.2121 249.994C93.1619 249.995 93.113 249.977 93.0741 249.946C93.0332 249.904 93.0103 249.848 93.0103 249.79C93.0103 249.732 93.0332 249.676 93.0741 249.635C93.6003 249.092 94.2363 248.668 94.9395 248.391C95.6428 248.114 96.3971 247.99 97.152 248.027C97.1811 248.03 97.2093 248.038 97.2351 248.052C97.2609 248.065 97.2838 248.084 97.3024 248.106C97.321 248.129 97.335 248.155 97.3435 248.183C97.352 248.211 97.355 248.24 97.3521 248.269C97.3495 248.298 97.3412 248.326 97.3276 248.352C97.3141 248.378 97.2955 248.401 97.2731 248.419C97.2506 248.438 97.2247 248.452 97.1968 248.46C97.1689 248.469 97.1396 248.472 97.1106 248.469C96.4282 248.439 95.7471 248.552 95.1112 248.802C94.4754 249.052 93.8989 249.432 93.4191 249.918C93.3935 249.947 93.3612 249.969 93.3251 249.982C93.289 249.995 93.2502 249.999 93.2121 249.994Z" fill="#F5F5F5"/>
<path d="M91.4112 248.704C91.3609 248.704 91.3121 248.687 91.2732 248.655C91.2521 248.635 91.2353 248.611 91.2238 248.585C91.2123 248.558 91.2064 248.529 91.2064 248.5C91.2064 248.471 91.2123 248.442 91.2238 248.416C91.2353 248.389 91.2521 248.365 91.2732 248.345C91.7986 247.801 92.4344 247.376 93.1379 247.099C93.8413 246.822 94.596 246.698 95.3511 246.737C95.4085 246.744 95.4609 246.773 95.497 246.818C95.5332 246.864 95.5501 246.921 95.5443 246.979C95.5374 247.036 95.5082 247.088 95.463 247.125C95.4179 247.161 95.3603 247.178 95.3028 247.172C94.6207 247.145 93.9404 247.26 93.305 247.509C92.6696 247.758 92.0929 248.137 91.6113 248.621C91.5879 248.651 91.5571 248.674 91.5221 248.688C91.487 248.703 91.4488 248.708 91.4112 248.704Z" fill="#F5F5F5"/>
<path d="M89.6517 247.413C89.602 247.411 89.554 247.394 89.5137 247.365C89.4728 247.324 89.4499 247.268 89.4499 247.21C89.4499 247.152 89.4728 247.096 89.5137 247.054C90.0827 246.462 90.7794 246.008 91.5506 245.726C92.3219 245.443 93.1474 245.341 93.9642 245.426C93.9934 245.428 94.0219 245.435 94.0479 245.449C94.0739 245.462 94.0968 245.481 94.115 245.503C94.1333 245.526 94.1465 245.553 94.1538 245.581C94.1611 245.609 94.1623 245.639 94.1574 245.668C94.1505 245.725 94.1213 245.777 94.0761 245.814C94.031 245.85 93.9735 245.867 93.9159 245.861C93.1734 245.788 92.4239 245.881 91.7221 246.134C91.0202 246.387 90.3836 246.793 89.8587 247.324C89.8345 247.355 89.8029 247.379 89.7667 247.395C89.7305 247.411 89.691 247.417 89.6517 247.413Z" fill="#F5F5F5"/>
<path d="M72.8502 227.389L62.9073 227.21C63.0522 233.848 64.1079 241.21 64.2873 247.434C64.2873 248.607 64.2873 256.542 64.7013 258.957C65.3913 262.579 69.6693 262.09 69.897 259.923C70.1247 257.756 69.621 248.49 69.6348 247.503C69.5934 243.515 71.4633 236.773 72.45 229.604C72.4914 229.28 72.8019 227.734 72.8502 227.389Z" fill="#FFA8A7"/>
<path d="M71.5116 261.427C71.6963 263.088 71.4589 264.768 70.8216 266.312C70.5061 266.926 69.9969 267.418 69.3731 267.712C68.7493 268.007 68.0457 268.087 67.3716 267.941C65.9019 267.727 63.963 266.94 63.3696 265.181C62.8077 263.56 62.6098 261.836 62.79 260.13L71.5116 261.427Z" fill="#263238"/>
<path d="M64.2597 246.675C63.6732 246.779 63.7836 249.642 63.7284 252.519C63.6663 255.611 62.8866 256.963 62.8107 259.495C62.721 262.393 63.0039 263.635 64.1907 265.277C65.3775 266.92 69.0828 268.244 70.5801 265.595C71.8014 263.435 71.6358 261.193 71.2149 258.35C70.794 255.507 70.4628 253.354 70.3524 251.105C70.242 248.855 70.1937 246.861 69.6624 246.675C69.6624 246.992 69.6624 247.4 69.6624 247.71C69.6624 248.021 69.7107 249.09 69.3795 249.159C69.3284 248.893 69.2984 248.623 69.2898 248.352C69.3051 248.101 69.2236 247.854 69.0621 247.662C68.8625 247.514 68.6201 247.437 68.3721 247.441C67.7811 247.374 67.1867 247.342 66.5919 247.344C66.2952 247.344 65.9916 247.344 65.7018 247.393C65.4468 247.412 65.1971 247.475 64.9635 247.579C64.8947 247.608 64.8328 247.652 64.7817 247.706C64.7306 247.761 64.6915 247.826 64.6668 247.896C64.6461 248.006 64.6461 248.118 64.6668 248.228C64.691 248.425 64.691 248.624 64.6668 248.821C64.6668 248.911 64.6047 249.021 64.515 249.007C64.4253 248.993 64.4115 248.911 64.4046 248.842C64.3632 248.497 64.4046 248.241 64.3632 247.841C64.3632 247.655 64.3632 247.4 64.3632 247.213C64.3632 247.027 64.2666 246.861 64.2597 246.675Z" fill="#455A64"/>
<path d="M62.859 258.667C62.859 259.088 62.7693 261.855 63.549 262.269C64.3287 262.683 64.6323 260.53 64.6323 260.53C64.6323 260.53 66.4608 259.764 69.3312 260.689C69.2346 261.144 69.8004 262.566 70.5249 262.179C71.2494 261.793 71.2149 258.64 71.2149 258.598C71.6082 261.358 71.7324 263.497 70.5249 265.595C69.0276 268.244 65.3085 266.906 64.1355 265.277C62.9625 263.649 62.6796 262.393 62.7555 259.495C62.79 259.205 62.8383 258.936 62.859 258.667Z" fill="#37474F"/>
<path d="M64.86 260.689C64.9497 261.724 63.9009 261.482 63.7077 259.999C63.5145 258.515 63.9699 255.003 63.7077 252.492C63.7629 249.614 63.6525 246.751 64.239 246.647C64.2356 246.682 64.2356 246.716 64.239 246.751L64.308 248.207C64.2944 248.414 64.2944 248.621 64.308 248.828C64.5012 250.939 64.6185 255.038 64.6254 256.984C64.6376 258.222 64.7159 259.459 64.86 260.689Z" fill="#263238"/>
<path d="M69 260.689C69.1352 259.468 69.202 258.24 69.2001 257.011C69.2001 255.079 69.3243 251.029 69.5175 248.904C69.5922 248.51 69.6223 248.11 69.6072 247.71C69.6072 247.42 69.6072 247.02 69.6072 246.744C69.6072 246.744 69.6072 246.703 69.6072 246.675C69.9936 246.82 70.1316 247.958 70.2144 249.394C70.2144 250.229 70.2144 251.264 70.1385 252.519C69.8763 255.031 70.3317 258.591 70.1385 260.047C69.9453 261.503 68.931 261.724 69 260.689Z" fill="#263238"/>
<path d="M69.4071 260.765H69.3312C67.8403 260.25 66.2198 260.25 64.7289 260.765C64.7017 260.775 64.6727 260.78 64.6436 260.779C64.6145 260.779 64.5859 260.772 64.5593 260.76C64.5327 260.748 64.5087 260.731 64.4887 260.71C64.4686 260.689 64.453 260.664 64.4425 260.637C64.4321 260.61 64.4272 260.581 64.4279 260.552C64.4287 260.523 64.4352 260.494 64.4471 260.468C64.4589 260.441 64.4759 260.417 64.497 260.397C64.5181 260.377 64.543 260.361 64.5702 260.351C66.1609 259.783 67.8992 259.783 69.4899 260.351C69.517 260.361 69.5419 260.376 69.5629 260.396C69.584 260.415 69.6008 260.439 69.6124 260.466C69.624 260.492 69.6301 260.521 69.6304 260.55C69.6307 260.578 69.6252 260.607 69.6141 260.634C69.5972 260.674 69.5683 260.708 69.5312 260.732C69.4942 260.755 69.4509 260.767 69.4071 260.765Z" fill="#F5F5F5"/>
<path d="M69.69 258.474C69.6651 258.48 69.639 258.48 69.6141 258.474C67.9378 257.954 66.143 257.954 64.4667 258.474C64.4391 258.484 64.4098 258.488 64.3806 258.486C64.3513 258.485 64.3227 258.477 64.2963 258.464C64.27 258.451 64.2465 258.433 64.2272 258.411C64.2079 258.389 64.1931 258.364 64.1838 258.336C64.1741 258.309 64.1701 258.28 64.1718 258.251C64.1736 258.222 64.1811 258.194 64.194 258.169C64.2069 258.143 64.2248 258.12 64.2468 258.101C64.2688 258.083 64.2943 258.069 64.3218 258.06C66.0927 257.496 67.995 257.496 69.7659 258.06C69.8144 258.078 69.855 258.112 69.8807 258.157C69.9064 258.202 69.9155 258.255 69.9065 258.306C69.8975 258.356 69.8708 258.403 69.8313 258.436C69.7917 258.469 69.7417 258.488 69.69 258.488V258.474Z" fill="#F5F5F5"/>
<path d="M64.377 256.307C64.3347 256.306 64.2937 256.293 64.2583 256.27C64.223 256.247 64.1948 256.215 64.1769 256.176C64.1535 256.123 64.152 256.063 64.1726 256.009C64.1933 255.955 64.2345 255.911 64.2873 255.887C66.0303 255.201 67.966 255.189 69.7176 255.852C69.7447 255.862 69.7695 255.877 69.7906 255.897C69.8116 255.917 69.8285 255.941 69.8401 255.967C69.8517 255.993 69.8578 256.022 69.8581 256.051C69.8584 256.08 69.8528 256.108 69.8418 256.135C69.8202 256.188 69.7786 256.232 69.7257 256.255C69.6728 256.278 69.6129 256.28 69.5589 256.259C69.5589 256.259 66.8541 255.197 64.4736 256.259C64.4454 256.282 64.4124 256.299 64.377 256.307Z" fill="#F5F5F5"/>
<path d="M64.3287 254.279C64.287 254.279 64.2461 254.268 64.2107 254.246C64.1753 254.224 64.1468 254.192 64.1286 254.155C64.1047 254.102 64.1022 254.043 64.1215 253.989C64.1409 253.935 64.1805 253.89 64.2321 253.865C65.0971 253.471 66.035 253.261 66.9855 253.251C67.9361 253.24 68.8784 253.428 69.7521 253.803C69.7782 253.815 69.8018 253.832 69.8212 253.853C69.8407 253.874 69.8557 253.899 69.8653 253.926C69.875 253.953 69.8791 253.981 69.8774 254.01C69.8758 254.039 69.8683 254.067 69.8556 254.092C69.8437 254.119 69.8268 254.142 69.8056 254.162C69.7845 254.181 69.7597 254.196 69.7326 254.206C69.7056 254.215 69.6769 254.22 69.6482 254.218C69.6195 254.216 69.5915 254.209 69.5658 254.196C68.7461 253.857 67.866 253.687 66.9788 253.698C66.0917 253.708 65.2159 253.899 64.4046 254.258C64.3806 254.269 64.355 254.276 64.3287 254.279Z" fill="#F5F5F5"/>
<path d="M64.2804 252.009C64.2299 252.009 64.1806 251.993 64.1408 251.962C64.101 251.93 64.0732 251.887 64.0619 251.837C64.0506 251.788 64.0565 251.736 64.0787 251.691C64.1009 251.646 64.138 251.609 64.1838 251.588C66.8127 250.291 69.6486 251.533 69.7659 251.588C69.7933 251.598 69.8183 251.614 69.839 251.635C69.8598 251.656 69.8759 251.68 69.8864 251.708C69.8968 251.735 69.9013 251.765 69.8996 251.794C69.8978 251.823 69.8899 251.852 69.8763 251.878C69.8522 251.93 69.8083 251.972 69.754 251.992C69.6998 252.013 69.6396 252.011 69.5865 251.988C69.5865 251.988 66.8265 250.781 64.3839 251.988C64.352 252.004 64.3161 252.012 64.2804 252.009Z" fill="#F5F5F5"/>
<path d="M66.1779 162.84C62.6727 172.548 63.2868 178.641 63.8871 188.819C64.4391 198.147 65.3154 206.365 65.3154 206.365C65.1774 208.021 62.8728 211.25 62.5554 218.564C62.4537 223.714 62.6842 228.866 63.2454 233.986C63.2454 233.986 67.8339 235.663 71.7117 233.986C71.7117 233.986 75.6792 216.467 76.7625 207.904C77.7009 200.431 79.3431 190.882 79.3431 190.882L82.7931 207.869C82.1187 210.153 81.7726 212.52 81.765 214.901C81.765 218.896 83.6211 230.005 83.6211 230.005C83.6211 230.005 88.7616 231.668 92.0184 228.776C92.0184 228.776 93.3087 212.789 93.7641 206.696C94.3713 198.568 93.4881 176.288 91.5354 164.882L66.1779 162.84Z" fill="#455A64"/>
<path d="M79.3845 190.854L80.8197 178.075C80.8197 178.075 87.2436 177.22 90.1554 174.48C89.3201 175.787 88.2067 176.893 86.8947 177.719C85.5827 178.546 84.1044 179.073 82.5654 179.262L80.4954 191.158L82.8414 207.842L79.3845 190.854Z" fill="#37474F"/>
<path d="M95.2683 153.366C92.1426 150.151 86.4984 142.878 86.4984 142.878L83.3106 131.838C84.0231 131.875 84.7371 131.875 85.4496 131.838C88.8996 132.066 89.9139 132.363 92.0598 134.709C93.7641 136.579 100.264 145.452 102.52 148.44L108.516 140.801C109.958 138.628 109.724 136.192 110.469 134.419C111.214 132.646 112.422 131.866 113.388 130.279C114.354 128.692 114.581 127.629 115.375 128.45C116.168 129.271 115.251 131.479 115.133 131.983C115.016 132.487 113.802 133.984 115.823 133.204C117.845 132.425 120.964 128.733 121.764 127.981C122.565 127.229 122.992 128.395 122.813 129.32C122.634 130.244 123.503 132.328 123.186 133.853C122.988 135.387 122.225 136.792 121.047 137.793C119.591 139.256 116.03 141.057 114.637 142.982C113.243 144.907 110.269 150.889 108.427 154.491C106.115 159.073 104.149 160.584 101.527 159.038C98.9046 157.492 96.4206 154.56 95.2683 153.366Z" fill="#FFA8A7"/>
<path d="M84.3249 131.721C86.0891 131.545 87.8702 131.781 89.5275 132.411C91.3974 133.253 92.667 135.061 94.4955 137.51C96.324 139.96 99.5877 144.245 99.5877 144.245C99.5877 144.245 98.7045 147.964 92.8809 151.303L83.3727 141.512L84.3249 131.721Z" fill="#37474F"/>
<path d="M102.52 148.433C101.383 149.506 100.621 150.916 100.347 152.455C100.347 152.455 99.6567 150.241 102.01 147.75L102.52 148.433Z" fill="#F28F8F"/>
<path d="M91.2111 151.324C95.4546 147.832 94.0539 143.285 92.5083 140.222C89.4102 134.101 86.1879 131.693 84.8424 131.714L76.4037 131.797C72.3741 132.349 69.2553 132.073 68.2824 132.301C65.7984 132.887 65.7432 134.929 65.6466 137.572C65.5431 140.47 64.0596 139.98 64.8117 144.769C65.6987 146.549 66.4776 148.381 67.1439 150.254C67.5993 151.91 68.8827 154.546 68.1996 157.223C67.9374 158.258 67.2336 159.293 66.1779 162.129C64.9809 165.317 64.0913 168.612 63.5214 171.969C63.5214 171.969 65.9847 171.396 68.7861 168.415C68.7861 168.415 72.6156 173.542 81.8271 173.024C91.3836 172.486 92.2254 167.504 92.2254 167.504L90.7626 158.534C90.9834 154.912 91.08 153.601 91.2111 151.324Z" fill="#66A678"/>
<path opacity="0.1" d="M85.698 150.42C85.698 150.42 82.248 153.18 78.1977 151.855C77.0695 151.517 76.0466 150.896 75.2265 150.05C74.4064 149.205 73.8163 148.163 73.5126 147.025C73.5126 147.025 73.1676 151.614 78.2598 153.09C79.622 153.504 81.081 153.467 82.4208 152.986C83.7605 152.505 84.9097 151.605 85.698 150.42Z" fill="black"/>
<path d="M61.5411 127.774C60.2922 126.863 53.5647 135.868 56.7111 138.124C59.8575 140.38 63.2109 133.984 62.5347 130.962C61.8585 127.94 61.5411 127.774 61.5411 127.774Z" fill="#37474F"/>
<path d="M55.4346 123.303C57.1182 120.971 58.2636 119.211 59.8023 117.21C60.6717 116.072 61.2306 115.264 62.0655 114.098C62.6451 113.298 62.9832 112.622 63.6318 112.366C64.3559 112.048 65.003 111.577 65.5293 110.986C65.8516 110.613 66.1489 110.219 66.4194 109.807C67.392 108.46 68.554 107.261 69.8694 106.246C71.2494 105.177 72.7605 104.349 74.1681 103.327C75.003 102.72 75.9 101.72 74.8581 100.816C74.5343 100.555 74.1499 100.379 73.7403 100.305C71.2287 99.8016 69.0552 100.705 66.6126 101.375C65.5505 101.664 64.5124 102.036 63.5076 102.486C63.0088 102.688 62.5435 102.965 62.1276 103.307C61.5498 103.911 61.0827 104.611 60.7476 105.377C59.6781 107.343 57.4218 109.096 55.8417 110.635C53.9856 112.442 52.3296 114.085 50.2113 116.092C48.3069 117.886 46.437 119.542 44.6913 121.502C43.2492 123.117 43.8081 124.359 44.0013 124.78C45.2433 127.222 46.5957 128.085 48.2241 129.61C48.7623 130.106 49.3074 130.596 49.8525 131.086C51.9639 132.991 54.0753 134.771 56.2695 136.606C58.6155 138.538 59.5815 139.477 61.6722 141.353C62.9915 142.565 64.091 143.996 64.9221 145.583C68.5446 146.183 72.105 140.643 69 134.164C68.4893 133.116 67.7169 132.217 66.7575 131.555C62.9349 128.83 55.4346 123.303 55.4346 123.303Z" fill="#FFA8A7"/>
<path d="M55.4346 123.303C54.3045 124.738 52.7861 125.818 51.06 126.415C51.06 126.415 53.3715 126.967 56.4765 124.076L55.4346 123.303Z" fill="#F28F8F"/>
<path d="M68.5722 132.245C67.7235 131.659 65.6604 130.41 61.5411 127.774C61.5411 127.774 62.1759 129.106 61.1754 132.452C60.1749 135.799 58.0635 137.917 56.7387 138.159C56.7387 138.159 59.0433 139.98 61.1685 142.036C63.2937 144.093 65.0394 145.549 66.2676 147.936C66.2676 147.936 69.3036 147.156 69.9936 142.009C70.4766 138.4 70.1868 134.164 68.5722 132.245Z" fill="#455A64"/>
<path d="M91.6182 115.672C92.2248 114.39 92.4919 112.973 92.3941 111.559C92.2962 110.144 91.8366 108.778 91.0593 107.592C88.4442 103.873 84.0351 102.072 79.1637 102.127H77.6526C71.0769 102.237 65.1015 107.882 64.9842 114.236C64.9842 118.708 64.9842 122.841 67.4475 125.89C69.7176 128.726 73.2573 129.658 76.245 130.113C81.9582 130.983 88.3752 130.32 90.9696 126.429C90.9696 126.429 87.5196 127.119 87.9543 123.545C88.0164 122.979 87.4782 122.358 86.5329 121.716C87.195 120.569 87.9743 119.494 88.8582 118.508C89.8311 117.535 90.9558 116.99 91.6182 115.672Z" fill="#263238"/>
<path d="M89.9139 118.935C89.8794 125.594 87.7473 127.27 86.6778 127.767C85.6083 128.264 83.5107 128.002 81.4752 127.705L81.5442 131.7C81.5442 131.7 83.9247 134.108 83.7867 135.944C83.6487 137.779 80.1435 138.014 77.487 136.296C76.0236 135.327 74.6963 134.166 73.5402 132.846C73.3196 132.59 73.1951 132.266 73.1883 131.928L73.0227 122.537C73.0227 122.537 71.9325 123.731 69.9453 122.42C69.516 122.157 69.146 121.809 68.8587 121.396C68.5714 120.982 68.3731 120.514 68.2764 120.02C68.1797 119.527 68.1868 119.018 68.2971 118.527C68.4074 118.036 68.6186 117.574 68.9172 117.169C69.1979 116.896 69.5351 116.688 69.905 116.559C70.2749 116.431 70.6684 116.385 71.0579 116.425C71.4474 116.465 71.8234 116.59 72.1593 116.792C72.4952 116.993 72.7828 117.265 73.002 117.59C73.6092 118.721 73.554 119.522 74.382 119.391C75.21 119.26 75.2445 118.363 75.2997 117.721C75.3549 117.079 75.2997 116.872 75.3825 116.03C77.349 115.609 79.3845 112.87 79.6122 110.869C80.9444 111.524 82.4126 111.855 83.8971 111.835C86.0982 111.683 87.2367 111.242 88.32 109.655C88.5781 110.018 88.7848 110.415 88.9341 110.835C89.2406 111.684 89.4715 112.559 89.6241 113.45C89.8699 115.267 89.9668 117.102 89.9139 118.935Z" fill="#FFA8A7"/>
<path d="M81.4752 127.705C79.3293 127.457 74.9064 126.27 74.1888 124.545C74.4788 125.421 75.0303 126.187 75.7689 126.739C77.1075 127.843 81.4959 129.037 81.4959 129.037L81.4752 127.705Z" fill="#F28F8F"/>
<path d="M83.6349 124.117C83.639 124.291 83.5914 124.462 83.4983 124.608C83.4051 124.755 83.2705 124.87 83.1116 124.94C82.9527 125.01 82.7766 125.031 82.6057 125.001C82.4348 124.97 82.2767 124.89 82.1516 124.77C82.0264 124.649 81.9398 124.494 81.9027 124.325C81.8657 124.155 81.8798 123.979 81.9434 123.817C82.0069 123.655 82.117 123.516 82.2597 123.418C82.4024 123.319 82.5712 123.264 82.7448 123.262C82.976 123.258 83.1994 123.346 83.3661 123.506C83.5329 123.666 83.6295 123.886 83.6349 124.117Z" fill="#B16668"/>
<path d="M82.5102 117.562C82.5216 117.685 82.5086 117.808 82.472 117.925C82.4354 118.043 82.376 118.152 82.2971 118.246C82.2182 118.34 82.1214 118.418 82.0123 118.475C81.9032 118.532 81.784 118.566 81.6615 118.577C81.4728 118.597 81.2824 118.56 81.1147 118.471C80.947 118.382 80.8097 118.245 80.7203 118.078C80.631 117.911 80.5937 117.72 80.6133 117.532C80.6328 117.343 80.7083 117.164 80.8301 117.019C80.9519 116.873 81.1144 116.767 81.2967 116.715C81.4791 116.662 81.6729 116.665 81.8535 116.724C82.034 116.782 82.193 116.893 82.31 117.043C82.427 117.192 82.4967 117.373 82.5102 117.562Z" fill="#263238"/>
<path d="M88.734 117.169C88.7512 117.394 88.6789 117.616 88.5329 117.788C88.3869 117.96 88.179 118.067 87.9543 118.087C87.8411 118.1 87.7263 118.09 87.6176 118.055C87.5088 118.021 87.4089 117.963 87.3244 117.887C87.2399 117.81 87.1729 117.716 87.128 117.611C87.0831 117.507 87.0614 117.393 87.0642 117.279C87.0528 117.168 87.0639 117.055 87.0968 116.947C87.1297 116.84 87.1838 116.74 87.2558 116.654C87.3278 116.568 87.4163 116.497 87.5161 116.446C87.6159 116.394 87.7251 116.363 87.837 116.355C88.0635 116.345 88.2846 116.425 88.4525 116.578C88.6204 116.73 88.7215 116.943 88.734 117.169Z" fill="#263238"/>
<path d="M84.4353 116.306L85.0977 121.868L87.9474 120.681L84.4353 116.306Z" fill="#F28F8F"/>
<path d="M79.1844 115.161L80.8404 113.588C81.0466 113.817 81.1566 114.117 81.1476 114.425C81.1386 114.734 81.0113 115.027 80.7921 115.244C80.6828 115.347 80.5537 115.428 80.4124 115.48C80.2712 115.532 80.1208 115.555 79.9705 115.547C79.8201 115.539 79.6729 115.501 79.5378 115.435C79.4026 115.368 79.2824 115.275 79.1844 115.161Z" fill="#263238"/>
<path d="M87.4713 113.077L89.3067 114.457C89.2222 114.582 89.1131 114.688 88.9861 114.769C88.8592 114.85 88.717 114.904 88.5683 114.928C88.4197 114.951 88.2677 114.945 88.1218 114.908C87.9759 114.871 87.839 114.804 87.7197 114.713C87.4794 114.522 87.3201 114.247 87.2741 113.944C87.228 113.64 87.2984 113.331 87.4713 113.077Z" fill="#263238"/>
<path d="M61.0167 62.5347C62.3397 62.2824 63.6922 62.222 65.0325 62.3553C66.3133 62.4676 67.5636 62.8089 68.724 63.3627C69.8373 63.8942 70.8216 64.6617 71.6082 65.6121C72.4377 66.6292 72.9892 67.8441 73.209 69.138C73.4159 70.1534 73.4159 71.2 73.209 72.2154C73.0235 73.0992 72.7072 73.9503 72.2706 74.7408C71.8468 75.51 71.3549 76.2397 70.8009 76.9212C70.2489 77.6112 69.7245 78.246 69.2346 78.8601C68.766 79.4381 68.3504 80.0569 67.9926 80.7093C67.6637 81.2885 67.5036 81.9482 67.5303 82.6137C67.5343 82.9231 67.4557 83.228 67.3026 83.4969C67.2304 83.624 67.1311 83.7337 67.0119 83.8184C66.8927 83.903 66.7564 83.9605 66.6126 83.9868L63.3627 84.6009C63.2083 84.6316 63.0494 84.6309 62.8952 84.5989C62.7411 84.5669 62.5951 84.5042 62.4657 84.4146C62.3311 84.3375 62.2173 84.2287 62.1343 84.0976C62.0514 83.9665 62.0017 83.8172 61.9896 83.6625C61.8312 82.6416 61.8828 81.5991 62.1414 80.5989C62.3867 79.7077 62.7462 78.8519 63.2109 78.0528C63.6601 77.2918 64.175 76.5714 64.7496 75.9C65.3223 75.21 65.8398 74.589 66.3159 73.9818C66.7536 73.4365 67.1329 72.8468 67.4475 72.2223C67.7181 71.6804 67.803 71.0646 67.689 70.4697C67.5973 69.9454 67.3791 69.4514 67.0533 69.0305C66.7274 68.6097 66.3038 68.2747 65.8191 68.0547C64.6169 67.5083 63.2665 67.3796 61.9827 67.689C59.5631 68.149 58.0106 69.6992 57.3252 72.3396C57.2649 72.6179 57.1575 72.884 57.0078 73.1262C56.8164 73.3473 56.5469 73.4858 56.2557 73.5126L52.8057 74.1681C52.5674 74.2105 52.3218 74.1639 52.1157 74.037C52.0073 73.9654 51.9151 73.872 51.845 73.7626C51.7749 73.6533 51.7284 73.5305 51.7086 73.4022C51.5596 72.3138 51.678 71.2054 52.0536 70.173C52.4442 68.9805 53.0422 67.8664 53.82 66.8817C54.6921 65.8035 55.731 64.8718 56.8974 64.1217C58.1544 63.3303 59.5536 62.7913 61.0167 62.5347ZM67.3164 86.5122C67.6232 86.4591 67.9386 86.5273 68.1961 86.7024C68.4536 86.8775 68.6329 87.1458 68.6964 87.4506L69.3864 91.218C69.4179 91.369 69.4176 91.5249 69.3855 91.6758C69.3534 91.8266 69.2903 91.9692 69.2001 92.0943C69.1153 92.2226 69.0057 92.3327 68.8777 92.4181C68.7497 92.5034 68.606 92.5622 68.4549 92.5911L64.7772 93.2811C64.6251 93.3127 64.4681 93.3125 64.3161 93.2804C64.1641 93.2484 64.0204 93.1852 63.894 93.0948C63.7656 93.01 63.6556 92.9004 63.5702 92.7724C63.4849 92.6445 63.4261 92.5007 63.3972 92.3496L62.7072 88.5822C62.6783 88.4307 62.6806 88.2748 62.7138 88.1242C62.747 87.9736 62.8105 87.8313 62.9004 87.7059C62.983 87.5756 63.092 87.4641 63.2203 87.3785C63.3487 87.293 63.4936 87.2352 63.6456 87.2091L67.3164 86.5122Z" fill="#66A678"/>
<path d="M96.0825 78.0804C96.8962 78.5316 97.64 79.0987 98.2905 79.764C98.9228 80.3874 99.4351 81.1218 99.8016 81.9306C100.153 82.7041 100.334 83.5442 100.333 84.3939C100.332 85.2996 100.094 86.1892 99.6429 86.9745C99.3049 87.6038 98.8479 88.1615 98.2974 88.6167C97.8043 88.9996 97.258 89.3087 96.6759 89.5344C96.1101 89.7555 95.526 89.9263 94.9302 90.045L93.2466 90.3762C92.7416 90.4733 92.2471 90.6188 91.77 90.8109C91.3407 90.9702 90.9651 91.2477 90.6867 91.6113C90.551 91.7784 90.372 91.9049 90.1692 91.977C90.0739 92.0127 89.9719 92.0269 89.8705 92.0185C89.7691 92.0102 89.6708 91.9795 89.5827 91.9287L87.5886 90.8109C87.3947 90.7048 87.2508 90.5261 87.1884 90.3141C87.1545 90.2133 87.1443 90.1061 87.1587 90.0008C87.173 89.8955 87.2116 89.7949 87.2712 89.7069C87.6386 89.0968 88.127 88.5685 88.7064 88.1544C89.2315 87.7876 89.8021 87.4907 90.4038 87.2712C90.9809 87.0659 91.574 86.9089 92.1771 86.802C92.7774 86.6985 93.3363 86.595 93.8607 86.4846C94.3339 86.3857 94.7962 86.2401 95.2407 86.0499C95.6243 85.8807 95.9436 85.5929 96.1515 85.2288C96.3327 84.9086 96.4337 84.5493 96.4457 84.1816C96.4577 83.8139 96.3804 83.4487 96.2205 83.1174C95.8264 82.2957 95.1679 81.6299 94.3506 81.2268C93.6465 80.8199 92.8342 80.64 92.0242 80.7117C91.2142 80.7833 90.4459 81.1029 89.8242 81.627C89.6703 81.752 89.495 81.8479 89.3067 81.9099C89.1091 81.9427 88.9065 81.8982 88.7409 81.7857L86.6157 80.5989C86.4653 80.5143 86.3521 80.3764 86.2983 80.2125C86.2714 80.1267 86.2631 80.0363 86.2738 79.9471C86.2845 79.8579 86.314 79.7719 86.3604 79.695C86.7632 79.0535 87.3147 78.5186 87.9681 78.1356C88.7119 77.6867 89.5297 77.3736 90.3831 77.211C91.3173 77.0278 92.2751 76.9976 93.219 77.1213C94.2263 77.2539 95.1985 77.5795 96.0825 78.0804ZM88.8099 93.5709C88.9036 93.6228 88.986 93.6929 89.0523 93.777C89.1187 93.8611 89.1676 93.9576 89.1963 94.0608C89.2268 94.1625 89.2365 94.2694 89.2246 94.3749C89.2128 94.4804 89.1797 94.5825 89.1273 94.6749L87.837 96.9864C87.7323 97.1745 87.5574 97.3135 87.3505 97.373C87.1436 97.4324 86.9216 97.4076 86.733 97.3038L84.4767 96.0411C84.3817 95.9918 84.2986 95.9225 84.2331 95.8379C84.1675 95.7533 84.1212 95.6555 84.0972 95.5512C84.0644 95.4501 84.0529 95.3433 84.0636 95.2376C84.0743 95.1319 84.1069 95.0295 84.1593 94.9371L85.4496 92.6256C85.5019 92.5329 85.5722 92.4517 85.6563 92.3865C85.7404 92.3213 85.8367 92.2736 85.9395 92.2461C86.041 92.2139 86.1481 92.2034 86.2539 92.2153C86.3597 92.2271 86.4618 92.2612 86.5536 92.3151L88.8099 93.5709Z" fill="#66A678"/>
<g opacity="0.2">
<path opacity="0.2" d="M96.0825 78.0804C96.8962 78.5316 97.64 79.0987 98.2905 79.764C98.9228 80.3874 99.4351 81.1218 99.8016 81.9306C100.153 82.7041 100.334 83.5442 100.333 84.3939C100.332 85.2996 100.094 86.1892 99.6429 86.9745C99.3049 87.6038 98.8479 88.1615 98.2974 88.6167C97.8043 88.9996 97.258 89.3087 96.6759 89.5344C96.1101 89.7555 95.526 89.9263 94.9302 90.045L93.2466 90.3762C92.7416 90.4733 92.2471 90.6188 91.77 90.8109C91.3407 90.9702 90.9651 91.2477 90.6867 91.6113C90.551 91.7784 90.372 91.9049 90.1692 91.977C90.0739 92.0127 89.9719 92.0269 89.8705 92.0185C89.7691 92.0102 89.6708 91.9795 89.5827 91.9287L87.5886 90.8109C87.3947 90.7048 87.2508 90.5261 87.1884 90.3141C87.1545 90.2133 87.1443 90.1061 87.1587 90.0008C87.173 89.8955 87.2116 89.7949 87.2712 89.7069C87.6386 89.0968 88.127 88.5685 88.7064 88.1544C89.2315 87.7876 89.8021 87.4907 90.4038 87.2712C90.9809 87.0659 91.574 86.9089 92.1771 86.802C92.7774 86.6985 93.3363 86.595 93.8607 86.4846C94.3339 86.3857 94.7962 86.2401 95.2407 86.0499C95.6243 85.8807 95.9436 85.5929 96.1515 85.2288C96.3327 84.9086 96.4337 84.5493 96.4457 84.1816C96.4577 83.8139 96.3804 83.4487 96.2205 83.1174C95.8264 82.2957 95.1679 81.6299 94.3506 81.2268C93.6465 80.8199 92.8342 80.64 92.0242 80.7117C91.2142 80.7833 90.4459 81.1029 89.8242 81.627C89.6703 81.752 89.495 81.8479 89.3067 81.9099C89.1091 81.9427 88.9065 81.8982 88.7409 81.7857L86.6157 80.5989C86.4653 80.5143 86.3521 80.3764 86.2983 80.2125C86.2714 80.1267 86.2631 80.0363 86.2738 79.9471C86.2845 79.8579 86.314 79.7719 86.3604 79.695C86.7632 79.0535 87.3147 78.5186 87.9681 78.1356C88.7119 77.6867 89.5297 77.3736 90.3831 77.211C91.3173 77.0278 92.2751 76.9976 93.219 77.1213C94.2263 77.2539 95.1985 77.5795 96.0825 78.0804ZM88.8099 93.5709C88.9036 93.6228 88.986 93.6929 89.0523 93.777C89.1187 93.8611 89.1676 93.9576 89.1963 94.0608C89.2268 94.1625 89.2365 94.2694 89.2246 94.3749C89.2128 94.4804 89.1797 94.5825 89.1273 94.6749L87.837 96.9864C87.7323 97.1745 87.5574 97.3135 87.3505 97.373C87.1436 97.4324 86.9216 97.4076 86.733 97.3038L84.4767 96.0411C84.3817 95.9918 84.2986 95.9225 84.2331 95.8379C84.1675 95.7533 84.1212 95.6555 84.0972 95.5512C84.0644 95.4501 84.0529 95.3433 84.0636 95.2376C84.0743 95.1319 84.1069 95.0295 84.1593 94.9371L85.4496 92.6256C85.5019 92.5329 85.5722 92.4517 85.6563 92.3865C85.7404 92.3213 85.8367 92.2736 85.9395 92.2461C86.041 92.2139 86.1481 92.2034 86.2539 92.2153C86.3597 92.2271 86.4618 92.2612 86.5536 92.3151L88.8099 93.5709Z" fill="black"/>
</g>
<path d="M47.4789 103.417C47.5708 103.33 47.6793 103.263 47.7978 103.219C47.9164 103.175 48.0426 103.156 48.1689 103.162C48.2984 103.164 48.4262 103.191 48.5447 103.244C48.6633 103.296 48.7701 103.371 48.8589 103.466L50.9841 105.77C51.0715 105.864 51.1395 105.974 51.1841 106.095C51.2287 106.215 51.249 106.343 51.2438 106.472C51.2387 106.6 51.2082 106.726 51.1542 106.842C51.1001 106.959 51.0236 107.063 50.9289 107.15L48.6795 109.22C48.5855 109.308 48.4751 109.376 48.3547 109.42C48.2343 109.465 48.1063 109.485 47.978 109.48C47.8497 109.475 47.7237 109.444 47.6073 109.39C47.4908 109.336 47.3862 109.26 47.2995 109.165L45.1743 106.86C45.086 106.767 45.0173 106.656 44.9722 106.536C44.9271 106.416 44.9065 106.287 44.9116 106.159C44.9168 106.03 44.9475 105.904 45.0021 105.787C45.0567 105.671 45.134 105.567 45.2295 105.48L47.4789 103.417ZM32.7129 89.5137C33.5197 88.7597 34.4306 88.1253 35.4177 87.63C36.355 87.1563 37.3689 86.8526 38.4123 86.733C39.4139 86.6224 40.4276 86.7259 41.3862 87.0366C42.4047 87.3842 43.3153 87.9905 44.0289 88.7961C44.626 89.4028 45.0952 90.1231 45.4089 90.9144C45.6619 91.6085 45.8108 92.3363 45.8505 93.0741C45.8899 93.7923 45.8668 94.5127 45.7815 95.2269C45.6918 95.9169 45.609 96.6069 45.5331 97.2486C45.4582 97.8527 45.4374 98.4624 45.471 99.0702C45.4939 99.6165 45.6709 100.145 45.9816 100.595C46.1153 100.801 46.1916 101.04 46.2024 101.285C46.2084 101.406 46.1866 101.527 46.1388 101.638C46.091 101.749 46.0183 101.848 45.9264 101.927L43.9392 103.769C43.7507 103.94 43.5035 104.031 43.2492 104.024C43.123 104.029 42.9976 104.003 42.8835 103.949C42.7694 103.895 42.67 103.814 42.5937 103.714C42.0416 103.072 41.624 102.326 41.3655 101.52C41.1494 100.796 41.0288 100.046 41.0067 99.291C40.9851 98.562 41.0267 97.8325 41.1309 97.1106C41.2344 96.4206 41.3172 95.7306 41.3862 95.1096C41.448 94.5386 41.448 93.9625 41.3862 93.3915C41.3412 92.8996 41.135 92.4363 40.7997 92.0736C40.5079 91.7503 40.1419 91.5029 39.7332 91.3526C39.3245 91.2023 38.8854 91.1538 38.4537 91.2111C37.389 91.3488 36.3995 91.8339 35.6385 92.5911C34.1573 93.9711 33.7502 95.7214 34.4172 97.842C34.499 98.0629 34.5411 98.2965 34.5414 98.532C34.5243 98.6481 34.4844 98.7597 34.424 98.8604C34.3636 98.9611 34.2839 99.0488 34.1895 99.1185L32.0712 101.078C31.9232 101.221 31.725 101.3 31.5192 101.299C31.4138 101.297 31.31 101.273 31.2148 101.228C31.1196 101.182 31.0351 101.117 30.9672 101.037C30.3806 100.358 29.9706 99.5451 29.7735 98.67C29.5394 97.6686 29.4856 96.6335 29.6148 95.6133C29.7565 94.4949 30.078 93.4068 30.567 92.391C31.0878 91.3011 31.8168 90.3237 32.7129 89.5137Z" fill="#66A678"/>
<g opacity="0.6">
<path opacity="0.6" d="M47.4789 103.417C47.5708 103.33 47.6793 103.263 47.7978 103.219C47.9164 103.175 48.0426 103.156 48.1689 103.162C48.2984 103.164 48.4262 103.191 48.5447 103.244C48.6633 103.296 48.7701 103.371 48.8589 103.466L50.9841 105.77C51.0715 105.864 51.1395 105.974 51.1841 106.095C51.2287 106.215 51.249 106.343 51.2438 106.472C51.2387 106.6 51.2082 106.726 51.1542 106.842C51.1001 106.959 51.0236 107.063 50.9289 107.15L48.6795 109.22C48.5855 109.308 48.4751 109.376 48.3547 109.42C48.2343 109.465 48.1063 109.485 47.978 109.48C47.8497 109.475 47.7237 109.444 47.6073 109.39C47.4908 109.336 47.3862 109.26 47.2995 109.165L45.1743 106.86C45.086 106.767 45.0173 106.656 44.9722 106.536C44.9271 106.416 44.9065 106.287 44.9116 106.159C44.9168 106.03 44.9475 105.904 45.0021 105.787C45.0567 105.671 45.134 105.567 45.2295 105.48L47.4789 103.417ZM32.7129 89.5137C33.5197 88.7597 34.4306 88.1253 35.4177 87.63C36.355 87.1563 37.3689 86.8526 38.4123 86.733C39.4139 86.6224 40.4276 86.7259 41.3862 87.0366C42.4047 87.3842 43.3153 87.9905 44.0289 88.7961C44.626 89.4028 45.0952 90.1231 45.4089 90.9144C45.6619 91.6085 45.8108 92.3363 45.8505 93.0741C45.8899 93.7923 45.8668 94.5127 45.7815 95.2269C45.6918 95.9169 45.609 96.6069 45.5331 97.2486C45.4582 97.8527 45.4374 98.4624 45.471 99.0702C45.4939 99.6165 45.6709 100.145 45.9816 100.595C46.1153 100.801 46.1916 101.04 46.2024 101.285C46.2084 101.406 46.1866 101.527 46.1388 101.638C46.091 101.749 46.0183 101.848 45.9264 101.927L43.9392 103.769C43.7507 103.94 43.5035 104.031 43.2492 104.024C43.123 104.029 42.9976 104.003 42.8835 103.949C42.7694 103.895 42.67 103.814 42.5937 103.714C42.0416 103.072 41.624 102.326 41.3655 101.52C41.1494 100.796 41.0288 100.046 41.0067 99.291C40.9851 98.562 41.0267 97.8325 41.1309 97.1106C41.2344 96.4206 41.3172 95.7306 41.3862 95.1096C41.448 94.5386 41.448 93.9625 41.3862 93.3915C41.3412 92.8996 41.135 92.4363 40.7997 92.0736C40.5079 91.7503 40.1419 91.5029 39.7332 91.3526C39.3245 91.2023 38.8854 91.1538 38.4537 91.2111C37.389 91.3488 36.3995 91.8339 35.6385 92.5911C34.1573 93.9711 33.7502 95.7214 34.4172 97.842C34.499 98.0629 34.5411 98.2965 34.5414 98.532C34.5243 98.6481 34.4844 98.7597 34.424 98.8604C34.3636 98.9611 34.2839 99.0488 34.1895 99.1185L32.0712 101.078C31.9232 101.221 31.725 101.3 31.5192 101.299C31.4138 101.297 31.31 101.273 31.2148 101.228C31.1196 101.182 31.0351 101.117 30.9672 101.037C30.3806 100.358 29.9706 99.5451 29.7735 98.67C29.5394 97.6686 29.4856 96.6335 29.6148 95.6133C29.7565 94.4949 30.078 93.4068 30.567 92.391C31.0878 91.3011 31.8168 90.3237 32.7129 89.5137Z" fill="white"/>
</g>
<path d="M187.984 151.558C186.017 150.434 177.737 145.645 174.922 144.017C174.363 143.699 174.011 143.492 173.983 143.472C172.584 142.691 170.948 142.446 169.381 142.782C168.036 143.055 166.748 143.556 165.572 144.265C165.379 144.376 165.186 144.507 165 144.631C161.819 146.639 159.086 149.799 156.809 154.146C154.491 158.38 153.247 163.119 153.187 167.946C153.187 172.518 154.406 175.727 156.844 177.572C157.091 177.755 157.349 177.924 157.617 178.075C159.901 179.372 171.355 186.01 171.61 186.155H171.672C171.39 186.001 171.12 185.825 170.865 185.631C168.422 183.791 167.203 180.585 167.208 176.012C167.268 171.185 168.512 166.446 170.83 162.212C173.236 157.612 176.155 154.316 179.586 152.324C182.852 150.438 185.672 150.192 188.046 151.586L187.984 151.558Z" fill="#66A678"/>
<path opacity="0.4" d="M188.046 151.6C185.672 150.22 182.852 150.464 179.586 152.331C176.398 154.171 173.65 157.161 171.341 161.301L157.32 153.18C159.487 149.309 162.046 146.459 164.993 144.603C165.179 144.486 165.372 144.348 165.565 144.238C166.74 143.528 168.029 143.028 169.374 142.761C170.941 142.422 172.578 142.667 173.977 143.451L174.915 143.996C177.73 145.618 186.01 150.406 187.977 151.531L188.046 151.6Z" fill="black"/>
<path opacity="0.3" d="M171.672 186.134H171.61C171.355 185.99 159.88 179.352 157.617 178.055C157.349 177.903 157.091 177.735 156.844 177.551C154.406 175.711 153.187 172.505 153.187 167.932C153.245 163.105 154.489 158.366 156.809 154.132C156.975 153.808 157.147 153.491 157.327 153.187L171.341 161.281C171.168 161.584 170.996 161.902 170.83 162.219C168.512 166.453 167.268 171.192 167.208 176.019C167.208 180.591 168.427 183.798 170.865 185.638C171.121 185.823 171.391 185.989 171.672 186.134Z" fill="black"/>
<path d="M181.87 33.155C188.674 29.222 194.465 27.5499 199.244 28.1387C201.19 28.3711 203.067 28.9955 204.764 29.9741C204.717 29.9491 204.671 29.9214 204.626 29.8913C202.984 28.9667 193.09 23.2604 190.826 21.9287C189.1 20.9197 187.183 20.2806 185.196 20.0519C180.412 19.4677 174.618 21.1375 167.815 25.0613C157.235 31.1655 148.725 40.1355 142.285 51.9713C135.845 63.8071 132.659 75.889 132.728 88.217L146.742 96.3107C146.646 83.9735 149.831 71.8893 156.299 60.0581C162.766 48.2269 171.29 39.2592 181.87 33.155Z" fill="#66A678"/>
<path opacity="0.2" d="M204.654 29.8977C202.982 28.9663 201.145 28.3687 199.244 28.1382C194.47 27.5494 188.678 29.2215 181.87 33.1545C171.29 39.2541 162.78 48.2241 156.34 60.0645C156.071 60.5544 155.809 61.0512 155.554 61.5411L141.505 53.4336C141.76 52.9437 142.023 52.4469 142.292 51.957C148.759 40.1304 157.269 31.1604 167.822 25.047C174.634 21.1186 180.428 19.4488 185.203 20.0376C187.19 20.2686 189.107 20.91 190.833 21.9213C193.117 23.2668 203.012 28.98 204.654 29.8977Z" fill="black"/>
<path opacity="0.3" d="M155.519 61.5273C149.581 72.8847 146.657 84.4744 146.749 96.2964L132.735 88.2027C132.648 76.3761 135.571 64.7864 141.505 53.4336L155.519 61.5273Z" fill="black"/>
<path d="M191.392 56.0901C188.848 54.7377 185.451 55.2667 181.201 57.6771C181.057 60.206 180.536 62.6991 179.655 65.0739C178.593 67.9351 175.501 73.8369 170.382 82.7793C165.078 92.0253 161.241 100.855 158.872 109.268C156.523 117.575 155.329 126.166 155.326 134.798L155.395 139.097L164.958 144.617L169.416 147.191L169.34 142.885V142.83C169.355 134.225 170.548 125.664 172.886 117.383C175.255 108.969 179.094 100.142 184.402 90.9006C189.518 81.9582 192.607 76.0541 193.669 73.1883C194.73 70.3551 195.273 67.3541 195.27 64.3287C195.27 60.2117 193.977 57.4655 191.392 56.0901Z" fill="#66A678"/>
<path opacity="0.3" d="M192.296 76.2864C190.714 79.58 188.082 84.4422 184.402 90.873C179.089 100.119 175.251 108.949 172.886 117.362C170.546 125.649 169.352 134.219 169.34 142.83V142.94L169.416 147.246L164.958 144.679L155.395 139.159L155.326 134.854C155.33 126.221 156.523 117.63 158.872 109.324C161.241 100.91 165.078 92.0805 170.382 82.8345C174.062 76.3945 176.697 71.5346 178.289 68.2548L192.296 76.2864Z" fill="black"/>
<path opacity="0.4" d="M195.27 64.3287C195.271 67.3444 194.732 70.3358 193.676 73.1607C193.379 73.968 192.917 75.0099 192.296 76.2864L178.289 68.1996C178.901 66.9208 179.361 65.8789 179.669 65.0739C180.55 62.6991 181.071 60.206 181.215 57.6771C185.465 55.2667 188.862 54.7377 191.406 56.0901C193.95 57.4425 195.238 60.1887 195.27 64.3287Z" fill="black"/>
<path d="M165.717 85.3392L146.749 96.2964C146.653 83.9592 149.838 71.875 156.306 60.0438C162.773 48.2126 171.283 39.2426 181.836 33.1338C188.639 29.2008 194.43 27.5287 199.21 28.1175C203.989 28.7063 207.814 31.326 210.685 35.9766C213.56 40.6272 214.997 46.4278 214.997 53.3784C214.969 57.4137 214.506 61.4343 213.617 65.3706C212.542 70.0793 211.09 74.6941 209.277 79.1706C208.118 82.0962 205.342 87.4966 200.949 95.3718C196.749 102.879 194.118 107.987 193.055 110.697C191.876 113.913 191 117.232 190.44 120.612C189.605 125.663 189.143 130.769 189.06 135.889L169.443 147.218L169.367 142.913C169.371 134.28 170.565 125.69 172.914 117.383C175.283 108.969 179.122 100.142 184.43 90.9006C189.545 81.9582 192.634 76.0541 193.697 73.1883C194.748 70.3534 195.281 67.3524 195.27 64.3287C195.27 60.1887 193.98 57.4425 191.399 56.0901C188.819 54.7377 185.355 55.3035 181.008 57.7875C176.564 60.3543 172.919 64.2045 170.071 69.3381C167.287 74.2163 165.788 79.7226 165.717 85.3392Z" fill="#66A678"/>
<path d="M179.552 152.373C183.071 150.335 186.075 150.208 188.563 151.993C191.052 153.778 192.296 156.954 192.296 161.522C192.221 166.376 190.953 171.136 188.605 175.384C186.148 180.053 183.179 183.393 179.697 185.403C176.214 187.413 173.257 187.496 170.823 185.651C168.385 183.811 167.166 180.603 167.166 176.026C167.226 171.199 168.47 166.46 170.789 162.226C173.204 157.635 176.125 154.351 179.552 152.373Z" fill="#66A678"/>
</svg>
